<?xml version="1.0" encoding="utf-8"?>
<!-- Generator: Adobe Illustrator 26.0.1, SVG Export Plug-In . SVG Version: 6.00 Build 0)  -->
<svg version="1.1" id="Layer_1" xmlns="http://www.w3.org/2000/svg" xmlns:xlink="http://www.w3.org/1999/xlink" x="0px" y="0px"
	 viewBox="0 0 654.4 592.1" style="enable-background:new 0 0 654.4 592.1;" xml:space="preserve">
<style type="text/css">
	.st0{fill:#5B3511;}
	.st1{fill:#F3FF00;}
	.st2{fill:#E7FF15;}
	.st3{display:none;fill:#E7FF15;}
	.st4{display:none;fill:#5B3511;}
	.st5{fill:#004220;}
	.st6{fill:#6D3F14;}
	.st7{opacity:0.5;fill:#5B3511;enable-background:new    ;}
	.st8{fill:#749133;}
</style>
<path class="st0" d="M324.8,147"/>
<ellipse class="st1" cx="348.7" cy="320.8" rx="231.7" ry="231.7"/>
<path class="st2" d="M270.3,156.3"/>
<path class="st3" d="M-56.7,482.4"/>
<path class="st4" d="M-56.7,482.4"/>
<polyline class="st3" points="-132.9,517 -70.5,604.4 -132.9,599 -132.9,425.7 -81.1,425.7 "/>
<g>
	<g>
		<path class="st2" d="M405.1,263.5"/>
		<path class="st2" d="M555.3,194.5"/>
		<path class="st2" d="M360.2,294.1"/>
		<g>
			<g>
				<path class="st5" d="M638.1,353.8H536.8c-1.1,0-1.9,0.9-1.9,1.9v51.1c0,1.1,0.9,1.9,1.9,1.9h113.9c1.2,0,2.1,1.1,1.9,2.3
					l-11.6,62.8c-0.2,0.9-1,1.6-1.9,1.6H429.3c-1.1,0-1.9-0.9-1.9-1.9V173.7c0-1.1,0.9-1.9,1.9-1.9h211.2c1.1,0,1.9,0.9,1.9,1.9V237
					c0,1.1-0.9,1.9-1.9,1.9H536.8c-1.1,0-1.9,0.9-1.9,1.9v43.9c0,1.1,0.9,1.9,1.9,1.9h99.2c1.1,0,1.9,0.9,1.9,1.9L638.1,353.8
					L638.1,353.8z"/>
			</g>
		</g>
		<path class="st1" d="M494.6,174.6l-74.1,145.7c-0.3,0.5-0.3,1.2,0,1.7l74.3,157.6c0.6,1.3-0.3,2.8-1.8,2.8h-77.4
			c-1.1,0-1.9-0.9-1.9-1.9V173.7c0-1.1,0.9-1.9,1.9-1.9l77.2-6.9C494.2,164.9,495.2,173.3,494.6,174.6z"/>
		<path class="st0" d="M362.1,171.8h66.3c1.1,0,1.9,0.9,1.9,1.9v299.8c0,1.1-0.9,1.9-1.9,1.9h-66.3c-1.1,0-1.9-0.9-1.9-1.9V173.7
			C360.2,172.7,361.1,171.8,362.1,171.8z"/>
		<path class="st0" d="M537.2,174.3c0,0.1-0.1,0.1-0.1,0.2l-0.7,1.4l-76.4,151.9c-0.3,0.5-0.3,1.2,0,1.7l70.5,143
			c0.6,1.3-0.3,2.8-1.7,2.8h-32.8h-2.1c-0.7,0-1.4-0.4-1.7-1.1l-61.6-126.8c-0.1-0.2-0.2-0.5-0.2-0.8l-1.5-42.7
			c0-0.3,0.1-0.7,0.2-0.9c22-43.4,44.2-86.9,66.2-130.3c0.3-0.6,1-1.1,1.7-1.1c12.9-0.2,25.7-0.3,38.6-0.4
			C537.1,171.2,538.1,173,537.2,174.3L537.2,174.3z"/>
	</g>
	<path class="st0" d="M643.8,474.9l12.3-66.7h-15c-4,22.3-7.9,44.6-11.9,66.9C634.1,475,638.9,474.9,643.8,474.9z"/>
	<rect x="629.6" y="286.1" class="st0" width="11.5" height="67.1"/>
	<polygon class="st0" points="631.3,172.8 631.3,238.5 645.5,238.3 645.5,171.2 629.6,171.2 	"/>
</g>
<g>
	<g>
		<path class="st0" d="M250.2,353.5c-5.4,3.3-11.7,5.9-17.7,8.8c-8.3,3.6-16.1,7.5-23.8,12c0.1-0.1,0.2-0.2,0.3-0.2
			c0.5-0.4,0.9-0.7,1.4-1.1c0.1-0.1,0.2-0.2,0.2-0.3c1.8-1.7,3.6-3.4,5.4-5.2c3.8-3.9,9-8.3,10.7-12.9c0.1-0.3-0.3-0.2-0.5,0
			c0,0,0,0-0.1,0.1c-0.1,0-0.2,0-0.2,0.1c-7.5,6.6-14.8,13.4-21.8,20.3c-1,1-2.1,1.9-3.2,2.8c-3.9,2.3-7.7,4.6-11.6,6.9
			c-1.4,0.8-2.9,1.7-4.3,2.6c-0.1-14.8,0.1-29.5,0.6-44.2c0.2-4.9,0.3-11.1,0.2-18.2c1-1.1,2-2.3,2.9-3.4c3-2,6.2-3.9,10.2-5.2
			c7.6-2.5,18.3-3.1,24.6-7.2c0.3-0.2,0.3-0.7-0.2-0.4c-3.2,1.6-8.7,2.3-12.4,3c-4.7,0.9-9.6,1.9-14,3.5c-1.6,0.6-3.1,1.3-4.6,2
			c0.4-0.4,0.7-0.9,1.1-1.3c0.7-0.7,1.3-1.4,1.9-2.1c0.9-0.9,1.8-1.7,2.6-2.6c0.3-0.3,0.6-0.7,0.9-1c6.3-4.6,13.1-8.9,20-13
			c1.2-0.7,0.7-2.1-0.9-1.2c-5.3,3.1-10.4,6.1-15.2,9.2c2.3-3.4,4.2-6.8,6.6-10.3c0.7-1-0.9-1-1.5-0.3c-4.2,5-8,10.3-12.1,15.4
			c-3.6,2.4-6.9,5.2-10.1,8.2c-0.2-13.7-0.6-30.2-1.2-47.9c2.8-0.9,5.5-1.9,8.3-2.7c6.5-1.8,13.7-2,20.3-3.6
			c0.3-0.1,0.9-0.8,0.3-0.7c-0.3,0-0.4,0.1-0.7,0.2c-0.1,0-0.2,0.1-0.2,0.2c-0.2-0.2-0.4-0.4-0.4-0.4c-1.9-0.1-3.8,0.3-5.7,0.5
			c-3.8,0.4-7.5,1-11.2,1.7c-3.4,0.6-6.6,1.8-9.7,2.9c0.3-0.3,0.6-0.5,0.9-0.8c3.6-2.6,7.1-5.4,10.8-7.9c1.1-0.7,2.1-1.5,3.1-2.2
			c5.5-1.8,11.9-2,17.5-3.7c0.4-0.1,1-0.3,1.5-0.4c1-0.2,1.9-0.4,2.9-0.5c0.2,0,0.6-0.3,0.8-0.6c1.3-0.5,2.4-1.1,2.8-1.9
			c0.2-0.4-0.5-0.3-0.7,0c-0.4,0.5-2.5,0.9-4,1.3c-4.2,0-8.3,1.6-12.6,1.8c-1.2,0.1-2.2,0.2-3.3,0.4c4.8-3.3,9.7-6.5,15.4-9
			c1.2-0.5,1.7-2.5-0.3-1.7c-4.9,1.9-9.6,4.5-13.9,7.4c0,0,0,0,0-0.1c0.1-0.3,0.2-0.6,0.3-0.9c1-2.9,2.6-5.6,4.3-8.4
			c0.9-1.2,1.7-2.5,2.3-3.8c0.5-1-1.3-0.5-1.6,0.1c-2.1,3.9-5.5,7.6-8.1,11.3c-1.5,2.2-3.1,3.9-4.9,5.6c-0.6,0.3-1.2,0.6-1.8,0.9
			c-2.2,1.1-4,2.5-6.3,3.7c-2.2,1.1-4.5,2.5-6.6,3.9c-0.7-18.4-1.6-37.7-2.6-56.3c0.6-0.9,1.2-1.9,1.7-2.9c1.9-2.3,3.8-4.6,5.8-6.8
			c1.9-2,3.6-4.1,5.4-6.2c3.7-1.5,8.9-3.2,9.8-3.6c4.9-2.2,10.3-4.4,14.7-7.1c0.3-0.2,0.2-0.6-0.2-0.3c-5.3,2.9-12.2,5.4-18.2,7.5
			c-1.2,0.4-2.6,0.9-4.1,1.4c2.5-2.9,5-5.8,7.6-8.7c5-5.4,9.9-10.6,14-16.4c0.7-1-0.4-1.3-1.3-0.9c-0.1-0.5-1-0.6-1.6,0
			c-4.8,4.8-9.4,9.6-13.9,14.5c0.7-2.8,2.1-9,1.7-9c0,0,0,0,0.1,0c0.2-0.1,0.5-0.3,0.4-0.4c0,0,0,0-0.1-0.1l0,0c-0.1,0-0.1,0-0.1,0
			c-0.3-0.1-0.5,0.2-0.6,0.3c-2.3,3.7-2.8,8-4.5,11.9c-0.2,0.5-0.5,1.1-0.8,1.7c-0.9,0.9-1.7,1.9-2.6,2.8
			c-3.7,4.1-7.7,7.9-11.6,11.9c-0.7,0.7-1.3,1.4-1.9,2.1c-2.5-44.7-5.3-83.3-7.1-90.3c-0.3-1.2-1.4-1-2.5-0.4
			c-4.8,21.7-7.5,43.6-9.1,65.5c-4.3-4.3-9-8.6-13.6-12.7l0,0l-0.1-0.1c-0.5-0.4-1.6,0.5-1.3,0.9c0.9,1,1.8,2,2.7,3.1
			c1,1.6,1.8,3.2,2.7,4.8c-0.9-0.3-1.9-0.7-2.7-1c-2.4-0.9-4.8-1.7-7.2-2.6c-1.2-0.4-3.7-1-4.3-1.8c-0.2-0.2-0.6,0.1-0.6,0.2
			c-0.8,1.5,6,3.9,7.6,4.6c2.7,1.2,5.5,2.4,8.2,3.6c0.4,0.2,0.8,0.4,1.2,0.6c1.2,1.9,2.5,3.8,3.9,5.6c1.1,1.5,2.1,3,3.1,4.5
			c0,11.1,0.4,22.3,0.6,33.5c0.1,5,0.1,10.1,0.1,15.1c-3-2-6.1-4.1-8.9-6.2c-7.8-5.8-8.8-14.7-11.1-22.3c-0.3-1.1-2.5,0.3-2.4,1
			c0.2,2,0.8,4,1.6,6c1,4.1,2.2,8.3,4.6,11.9c-0.3-0.2-0.6-0.3-0.9-0.5c-0.6-0.4-1.2-0.8-1.7-1.1c-0.8-0.5-1.5-1.1-2.3-1.6l-0.1-0.1
			l0,0c-5.9-4.2-11.9-8.4-18.3-12.3c-0.4-0.2-1.1,0.4-0.8,0.7c3.4,3,6.9,5.8,10.5,8.6c-0.8,0-1.6,0-2-0.1c-3.8-0.6-7.2-0.8-11.1-0.5
			c-0.3,0-0.7,0.5-0.3,0.5c3.6,0.2,6.7,0.8,10,1.6c2,0.5,5.3,0.8,7.3,1.6c3.1,2.4,6.2,4.8,9.3,7.1c3.9,3,7.9,5.9,12,8.9
			c1.6,1.1,3.1,2.3,4.5,3.4c-0.2,16.8-0.8,33.6-1.7,50.5c-5.3-2.4-10.6-4.7-15.7-7.3c-2.2-1.1-3.8-2.3-5.1-3.6
			c-1.4-2.4-2.6-4.8-4.1-7.2c-1.8-2.9-2.3-5.8-4.5-8.7c-0.1-0.2-0.5,0.1-0.6,0.2c-0.5,1,0.5,2.1,0.7,3.1c0.6,2.3,1.1,4.5,2.1,6.7
			c0,0.1,0.1,0.3,0.2,0.4c0.1,0.5,0.3,0.9,0.5,1.4c0.6,1.6,1.3,3.8,2.4,5.3c-1.5-0.6-3-1.2-4.5-1.9c-2.3-1-7.7-4.1-10.3-4
			c-0.4,0-0.9,0.6-0.3,0.6c1.3,0.1,4.4,2.4,5.6,2.9c1.8,0.9,3.8,1.7,5.6,2.6c4.3,2.1,8.9,4,13.3,6c1.2,0.6,2.4,1.1,3.6,1.7
			c-5.9-0.8-11.8-1.4-17.8-1c-0.1,0-0.2,0-0.3,0h-0.1c-0.5,0-1.4,0.9-0.7,1c5.8,0.6,11.4,1.1,17.1,2c3.8,0.6,7.4,1.7,11,2.6
			c0.2,0.1,0.5,0.3,0.8,0.4c0.3,0.2,0.7,0.3,1,0.5c-0.2,4.1-0.4,8.3-0.7,12.4c-0.2,17-0.4,34.1-0.8,51.1c-0.1,2.5-0.1,5-0.1,7.5
			c-2.9-1.2-5.9-2.4-8.6-3.8c-1.4-0.7-2.9-1.4-4.4-2c-2.3-2.4-4.4-5-6.6-7.5c-6.4-7.2-7.6-15.6-8.9-23.9c-0.1-0.4-0.7,0.1-0.8,0.3
			c-1.2,3.8,0,8,0,11.9c0,0.3,0,0.6,0.1,0.9c-3.3-3.7-7.2-7.3-9.5-11.3c-0.2-0.4-1.1,0.3-1,0.5c1.3,5.5,7.3,10.9,10.9,15.8
			c2.2,3,3.9,6.1,6,9.1c-0.5-0.2-1-0.4-1.5-0.6c-2.9-1.3-5.6-2.7-8.3-4.3c-4.3-2.9-8.5-5.9-12.8-8.8c-3.8-2.6-10.2-8.9-16.1-9
			c-0.6,0-1.5,0.7-1.3,1.1c1.6,3.8,7.5,7.3,11.4,10.1c6.3,4.5,12.5,8.5,19.7,12.4c7.5,4,14.8,8.2,21.6,12.8c0.3,0.2,0.6,0.4,0.9,0.6
			v0.1c0.5,0.5,0.9,0.7,1.4,0.9c2.5,1.7,4.9,3.4,7.3,5.1c0.1,0.1,0.2,0.2,0.3,0.2c-0.9,72.7,1.4,145.4-4.4,218
			c12.7,4.7,26.8,5.3,40.3,2.1c0-35-6.2-70-7.4-105c-1.1-31.6-2.3-63.2-2.6-94.8c0.3-0.3,0.6-0.5,1-0.8c7.3-4.6,13.4-10.4,21.5-14.2
			c7.2-3.4,13.7-7.8,20.3-11.7c0.5-0.3,0.9-0.6,1.4-0.8c0.8-0.4,1.5-0.7,2.3-1.1c0.2-0.1,0.4-0.3,0.6-0.6c2-1.2,4.1-2.4,6.2-3.5
			c0.9-0.5,2.4-1,3.3-1.7c0.9-0.4,1.6-0.8,2.3-1.3c0.3-0.2,0.4-0.6,0.2-0.8c2.4-1.3,4.6-2.8,6.5-4.4
			C250.8,353.6,250.5,353.3,250.2,353.5z"/>
		<path class="st6" d="M178.7,495c-0.1-7.1-0.7-14.2-1.3-21.3c-0.6-7,0-13.9-1-20.9c-1.9-13.4,0.4-27.1,0.6-40.6
			c0.2-13.1,1.4-26.8-1.3-39.8c-0.1-0.3-0.8,0.1-0.7,0.3c1.2,6.3,0.2,12.7,0.1,19c-0.1,6.6-0.1,13.1-0.1,19.6
			c-0.1,13.5-2.6,27.3-1,40.7c0.8,6.4,0.8,12.7,1.1,19.1c0.2,7.1,1.3,14.1,1.4,21.2c0.3,13.7,0.6,27.3,0.2,40.9
			c0,0.7,1.3,0.1,1.3-0.3C179.5,520.3,178.9,507.8,178.7,495z"/>
		<path class="st7" d="M250.2,353.5c-5.4,3.3-11.7,5.9-17.7,8.8c-8.3,3.6-16.1,7.5-23.8,12c0.1-0.1,0.2-0.2,0.3-0.2
			c0.5-0.4,0.9-0.7,1.4-1.1c0.1-0.1,0.2-0.2,0.2-0.3c1.8-1.7,3.6-3.4,5.4-5.2c3.8-3.9,9-8.3,10.7-12.9c0.1-0.3-0.3-0.2-0.5,0
			c0,0,0,0-0.1,0.1c-0.1,0-0.2,0-0.2,0.1c-7.5,6.6-14.8,13.4-21.8,20.3c-1,1-2.1,1.9-3.2,2.8c-3.9,2.3-7.7,4.6-11.6,6.9
			c-1.4,0.8-2.9,1.7-4.3,2.6c-0.1-14.8,0.1-29.5,0.6-44.2c0.2-4.9,0.3-11.1,0.2-18.2c1-1.1,2-2.3,2.9-3.4c3-2,6.2-3.9,10.2-5.2
			c7.6-2.5,18.3-3.1,24.6-7.2c0.3-0.2,0.3-0.7-0.2-0.4c-3.2,1.6-8.7,2.3-12.4,3c-4.7,0.9-9.6,1.9-14,3.5c-1.6,0.6-3.1,1.3-4.6,2
			c0.4-0.4,0.7-0.9,1.1-1.3c0.7-0.7,1.3-1.4,1.9-2.1c0.9-0.9,1.8-1.7,2.6-2.6c0.3-0.3,0.6-0.7,0.9-1c6.3-4.6,13.1-8.9,20-13
			c1.2-0.7,0.7-2.1-0.9-1.2c-5.3,3.1-10.4,6.1-15.2,9.2c2.3-3.4,4.2-6.8,6.6-10.3c0.7-1-0.9-1-1.5-0.3c-4.2,5-8,10.3-12.1,15.4
			c-3.6,2.4-6.9,5.2-10.1,8.2c-0.2-13.7-0.6-30.2-1.2-47.9c2.8-0.9,5.5-1.9,8.3-2.7c6.5-1.8,13.7-2,20.3-3.6
			c0.3-0.1,0.9-0.8,0.3-0.7c-0.3,0-0.4,0.1-0.7,0.2c-0.1,0-0.2,0.1-0.2,0.2c-0.2-0.2-0.4-0.4-0.4-0.4c-1.9-0.1-3.8,0.3-5.7,0.5
			c-3.8,0.4-7.5,1-11.2,1.7c-3.4,0.6-6.6,1.8-9.7,2.9c0.3-0.3,0.6-0.5,0.9-0.8c3.6-2.6,7.1-5.4,10.8-7.9c1.1-0.7,2.1-1.5,3.1-2.2
			c5.5-1.8,11.9-2,17.5-3.7c0.4-0.1,1-0.3,1.5-0.4c1-0.2,1.9-0.4,2.9-0.5c0.2,0,0.6-0.3,0.8-0.6c1.3-0.5,2.4-1.1,2.8-1.9
			c0.2-0.4-0.5-0.3-0.7,0c-0.4,0.5-2.5,0.9-4,1.3c-4.2,0-8.3,1.6-12.6,1.8c-1.2,0.1-2.2,0.2-3.3,0.4c4.8-3.3,9.7-6.5,15.4-9
			c1.2-0.5,1.7-2.5-0.3-1.7c-4.9,1.9-9.6,4.5-13.9,7.4c0,0,0,0,0-0.1c0.1-0.3,0.2-0.6,0.3-0.9c1-2.9,2.6-5.6,4.3-8.4
			c0.9-1.2,1.7-2.5,2.3-3.8c0.5-1-1.3-0.5-1.6,0.1c-2.1,3.9-5.5,7.6-8.1,11.3c-1.5,2.2-3.1,3.9-4.9,5.6c-0.6,0.3-1.2,0.6-1.8,0.9
			c-2.2,1.1-4,2.5-6.3,3.7c-2.2,1.1-4.5,2.5-6.6,3.9c-0.7-18.4-1.6-37.7-2.6-56.3c0.6-0.9,1.2-1.9,1.7-2.9c1.9-2.3,3.8-4.6,5.8-6.8
			c1.9-2,3.6-4.1,5.4-6.2c3.7-1.5,8.9-3.2,9.8-3.6c4.9-2.2,10.3-4.4,14.7-7.1c0.3-0.2,0.2-0.6-0.2-0.3c-5.3,2.9-12.2,5.4-18.2,7.5
			c-1.2,0.4-2.6,0.9-4.1,1.4c2.5-2.9,5-5.8,7.6-8.7c5-5.4,9.9-10.6,14-16.4c0.7-1-0.4-1.3-1.3-0.9c-0.1-0.5-1-0.6-1.6,0
			c-4.8,4.8-9.4,9.6-13.9,14.5c0.7-2.8,2.1-9,1.7-9c0,0,0,0,0.1,0c0.2-0.1,0.5-0.3,0.4-0.4c0,0,0,0-0.1-0.1l0,0c-0.1,0-0.1,0-0.1,0
			c-0.3-0.1-0.5,0.2-0.6,0.3c-2.3,3.7-2.8,8-4.5,11.9c-0.2,0.5-0.5,1.1-0.8,1.7c-0.9,0.9-1.7,1.9-2.6,2.8
			c-3.7,4.1-7.7,7.9-11.6,11.9c-0.7,0.7-1.3,1.4-1.9,2.1c-1.6-29-3.4-55.4-4.9-72.3c0.5,19.3-1,38.5-1.1,57.8
			c-0.2,27.8,0.9,55.7,0.5,83.6c-0.4,30-0.3,60.1-1.1,90.1c-0.9,30.2-5.4,189.6-0.5,239c7,0.4,14-0.2,20.9-1.9c0-35-6.2-70-7.4-105
			c-1.1-31.6-2.3-63.2-2.6-94.8c0.3-0.3,0.6-0.5,1-0.8c7.3-4.6,13.4-10.4,21.5-14.2c7.2-3.4,13.7-7.8,20.3-11.7
			c0.5-0.3,0.9-0.6,1.4-0.8c0.8-0.4,1.5-0.7,2.3-1.1c0.2-0.1,0.4-0.3,0.6-0.6c2-1.2,4.1-2.4,6.2-3.5c0.9-0.5,2.4-1,3.3-1.7
			c0.9-0.4,1.6-0.8,2.3-1.3c0.3-0.2,0.4-0.6,0.2-0.8c2.4-1.3,4.6-2.8,6.5-4.4C250.8,353.6,250.5,353.3,250.2,353.5z"/>
		<path class="st6" d="M174.2,192.5c0-0.2-0.5,0-0.5,0.2c0,30.3,0.8,60.6,2,90.9c0,0.2,0.5,0,0.5-0.2c0.6-15.1,1.2-30.2,1.1-45.3
			C177.3,222.9,174.4,207.8,174.2,192.5z"/>
		<path class="st6" d="M166.8,277c-0.1-0.2-0.4,0.1-0.4,0.2c0.9,10.3-1.8,20.7-1.4,31c0.5,12-1.8,23.9-1.4,35.9c0,0.3,0.7,0,0.7-0.2
			c0.3-5.9,0.8-11.8,1.5-17.7c0.7-5.8,2.1-11.5,1.4-17.3C165.9,298.5,171.3,287.1,166.8,277z"/>
	</g>
	<g>
		<path class="st5" d="M346.3,374.7c-0.9-2.1-4-3.1-6.6-4c-5.1-1.8-10.4-3.3-15.3-5.3c-6.1-2.6-11.8-5.4-17.4-8.4
			c-4.4-2.4-9.5-4.4-13.5-7.1c4,0.5,7.8,1.7,11.8,2.2c5.2,0.6,10.4,0.8,15.7,0.7c7.1-0.1,16-0.2,22.5-2.5c0.5-0.2,0-0.8-0.2-1
			c-1.4-1.1-3.2-1.6-5.3-1.9c-5.8-0.8-11.5-2.3-16.5-4.5c-9.7-4.3-19-9-27.6-14.4c-8-5-16.5-10.1-22.6-16.3c-0.9-0.9-4.1-4-6.6-7.1
			c3.6,2.2,7.3,4.3,10.9,6.4c1.7,1,4.4,2.7,6.5,1.4c0.3-0.2,0.2-0.5,0.1-0.7c-1-2.4-3.4-4.1-5.7-5.9c-2.4-1.9-4.5-3.9-6.6-6
			c2.7,1,5.1,2.1,8.2,2.9c4.1,1.1,8.1,2.4,12.2,3.5c4.8,1.3,11,3.8,16.5,3.1c0.5-0.1,0.4-0.5,0.3-0.7c-1.2-2.4-4.4-4.2-6.4-6.3
			c-3.1-3.4-7.9-6.5-11.9-9.5c-6.8-5-14.3-10.2-20.5-15.6c7.8,3,15.4,6,23.5,8.6c2.3,0.8,7.8,1.5,4.9-1.4
			c-7.3-7.5-19.1-13.5-28.7-19.7c5.1,0.9,10.2,3.3,15.2,4.4c5.3,1.1,11,2.5,16.6,2.9c5.8,0.4,11.6,0.3,17.4,0.4
			c3.9,0.1,8.1,0.6,11.8-0.6c0.9-0.3,0-1.1-0.5-1.3c-3.6-1.7-8.4-1.5-12.4-2.6c-6.2-1.8-12.4-3.7-18.6-5.5
			c-12.8-3.8-25.3-8.2-37-13.4c-2.9-1.3-6.2-2.7-9.2-4.4c2.3,0.7,4.7,1.3,7.2,1.8c6.5,1.3,13.3,1.6,20,1.8c5.2,0.1,12.8,0.1,17.4-2
			c0.4-0.2,1.4-1.1,0.5-1.3c-10.8-2.1-20.7-5.7-29.7-10.1c3.2,0.6,6.4,1,9.7,1.3c6.4,0.5,16.5,0.5,20.9-3.4c0.3-0.2,0.8-1.1,0-1.1
			c-7.8-0.8-15.3-1.4-22.9-2.9c-9.4-1.9-17.1-5.9-24.8-9.8c-6-3.1-10.9-6.6-15.2-10.5c-0.2-0.3-0.4-0.6-0.5-0.9
			c7.1,5.3,18,9.2,27.6,11.3c10.5,2.2,4.6-3.6,1.5-7.3c3.7,1.6,7.6,2.7,11.2,4.3c2.7,1.2,6.7,3.5,10.2,2.7c0.6-0.1,0.4-0.6,0.2-0.9
			c-2.3-2.8-5.6-5-8.2-7.6c-1.4-1.4-2.6-2.8-3.9-4.1c4.9,2.2,10.9,3.9,15.5,5.8c3.9,1.6,8.6,2.6,12.7,3.8c3.2,0.9,5.9,2.1,9.4,1.9
			c1-0.1,0-1.1-0.3-1.3c-7.1-4.1-15.4-7.1-22.4-11.4c-8.1-5.1-15.6-10.6-22.2-16.6c-12.1-11-22-22.8-32.9-34.3
			c4.3,0.9,8.5,3.2,12.3,4.7c2.1,0.8,4.6,2,6.9,1.1c0.3-0.1,0.2-0.5,0.1-0.7c-0.5-1.3-1.5-2.4-3.1-3.3c-3.1-1.8-5.4-3.8-7.7-6.1
			c-3.4-3.2-6.6-6.8-9.6-10.4c3,1.9,5.8,3.9,9.3,5.5c2.6,1.3,6.5,3.5,9.9,2.7c0.3-0.1,0.5-0.3,0.4-0.6c-0.8-3-4.4-4.1-7.1-6.3
			c-1.6-1.3-3.9-2.2-5.5-3.5c-2.7-2.4-5.3-4.8-7.7-7.4c-9.2-9.8-16.1-19.8-20.9-31c-2.7-6.2-5.2-12.4-7.5-18.6
			c0-0.1-0.1-0.2-0.1-0.3c-2.1-4.5-4-9-5.9-13.5c-4.1-10-6.6-20.3-9.3-30.6l0,0c0-0.1,0-0.2-0.1-0.3c-1.6-6-3.2-11.9-5.2-17.8
			c0,0,0,0-0.1,0c-6.6,20.7-14.1,41.2-23.3,61.4c-1.4,3.1-3.1,6.1-4.9,9c-1.4,3.6-2.9,7.2-4.4,10.8c-4.8,11.2-11.8,21.2-20.9,31
			c-2.4,2.6-4.9,5-7.7,7.4c-1.6,1.4-3.8,2.2-5.5,3.5c-2.7,2.2-6.2,3.3-7.1,6.3c-0.1,0.2,0.1,0.5,0.4,0.6c3.4,0.9,7.3-1.4,9.9-2.7
			c3.4-1.7,6.3-3.6,9.3-5.5c-3.1,3.5-6.3,7.1-9.6,10.4c-2.4,2.3-4.7,4.3-7.7,6.1c-1.5,0.9-2.6,2-3.1,3.3c-0.1,0.2-0.2,0.6,0.1,0.7
			c2.3,0.8,4.9-0.4,6.9-1.1c3.8-1.4,8-3.8,12.3-4.7C116,165.1,106,176.9,94,187.9c-6.6,6-14.1,11.6-22.2,16.6
			c-7,4.4-15.3,7.3-22.4,11.4c-0.3,0.2-1.2,1.3-0.3,1.3c3.5,0.2,6.2-0.9,9.4-1.9c4.1-1.2,8.9-2.2,12.7-3.8
			c4.6-1.9,10.6-3.5,15.5-5.8c-1.3,1.4-2.5,2.8-3.9,4.1c-2.6,2.6-5.9,4.8-8.2,7.6c-0.2,0.3-0.4,0.8,0.2,0.9
			c3.5,0.9,7.5-1.5,10.2-2.7c3.7-1.6,7.6-2.7,11.3-4.3c-3.1,3.7-9,9.5,1.5,7.3c9.6-2,20.5-5.9,27.6-11.3c-2.2,5.1-8.6,8.9-12.8,13.1
			c-0.3,0.3-0.6,0.6-0.9,0.9c-2.5,1.6-5.1,3.1-7.5,4.5c-12.7,7.1-29,12.4-45.2,13.8c-0.7,0.1-1.9,0.9-1.2,1.4
			c3.5,2.1,9.9,2.8,14.4,3.5c3.7,0.5,7.5,0.3,11.2-0.2c-2.2,0.8-4.4,1.6-6.6,2.5c-2.5,1-5.8,1.5-7.7,3.1c-0.3,0.3-0.7,0.9,0,1.1
			c2.5,0.6,5.6-0.2,8.2-0.4c3.9-0.4,7.8-0.8,11.6-1.5c8.5-1.5,16.6-4.5,23.9-7.8c-3.4,3.2-9.3,5.7-14,7.8
			c-11.7,5.2-24.2,9.6-37,13.4c-6.2,1.8-12.4,3.7-18.6,5.5c-3.9,1.2-8.8,0.9-12.4,2.6c-0.5,0.2-1.4,1-0.5,1.3
			c3.7,1.2,7.8,0.7,11.8,0.6c5.8-0.1,11.6,0,17.4-0.4c5.6-0.4,11.2-1.8,16.6-2.9c5-1,10.1-3.4,15.2-4.4
			c-9.6,6.2-21.4,12.2-28.7,19.7c-2.8,2.9,2.6,2.2,4.9,1.4c8.1-2.7,15.7-5.7,23.5-8.6c-6.3,5.4-13.8,10.6-20.5,15.6
			c-4,2.9-8.7,6.1-11.9,9.5c-2,2.2-5.2,3.9-6.4,6.3c-0.1,0.2-0.1,0.6,0.3,0.7c5.4,0.8,11.6-1.8,16.5-3.1c4.1-1.1,8.1-2.4,12.2-3.5
			c3.1-0.8,5.5-1.9,8.2-2.9c-2.2,2-4.3,4.1-6.6,6c-2.3,1.8-4.7,3.6-5.7,5.9c-0.1,0.2-0.2,0.5,0.1,0.7c2.2,1.3,4.8-0.4,6.5-1.4
			c3.7-2.1,7.3-4.3,10.9-6.4c-2.5,3.2-5.6,6.2-6.6,7.1c-6.1,6.2-14.6,11.3-22.6,16.3c-8.5,5.4-17.9,10.1-27.6,14.4
			c-5,2.2-10.7,3.8-16.5,4.5c-2.1,0.3-3.9,0.8-5.4,1.9c-0.2,0.2-0.7,0.8-0.2,1c6.5,2.3,15.4,2.4,22.5,2.5c5.3,0.1,10.5-0.1,15.7-0.7
			c4-0.4,7.8-1.6,11.8-2.2c-4,2.7-9.1,4.7-13.5,7.1c-5.6,3.1-11.3,5.9-17.4,8.4c-4.9,2.1-10.2,3.5-15.3,5.3c-2.7,0.9-5.8,1.9-6.6,4
			c-0.1,0.3-0.1,0.6,0.3,0.7c2.9,0.9,5.5,0.8,8.5,0.3c4.9-0.7,9.7-1.3,14.6-1.9c8.1-1,14.6-3.8,21.8-6c-9.9,7.3-16.6,15.8-25.5,23.6
			c-4.1,3.6-9.2,8-11.7,12.2c-1.6,2.7-5,5.3-4.5,8.4c0,0.2,0.3,0.4,0.6,0.4c2.3-0.3,3.9-1.2,5.7-2.2c4.3-2.5,8.6-4.9,12.8-7.5
			c8.1-5,15.7-10.3,24.5-14.7c-5.4,4.4-11.4,8.5-16.9,12.8c-6.8,5.4-14.4,10.8-21.7,15.8c-0.8,0.5-5.6,4.8-2.3,5.4
			c1.8,0.3,3.9-0.8,5.3-1.3c5-2,11.1-3.1,16.4-4.7c19.1-5.8,37.7-11.6,55.3-19.3c0.1-0.1,0.3-0.1,0.4-0.2
			c-8.6,5.7-17.9,10.9-28.7,14.6c-0.7,0.2-1.3,1.5,0,1.2c14.1-2.5,27.6-7.1,41.2-10.8c-5.4,3.7-10.3,7.7-15.7,11.5
			c-2.9,2-5.8,4-8.7,6.1c-3.3,2.3-7.3,3.6-10.8,5.6c-0.3,0.2-1.1,1.1-0.2,1.2c6.1,0.5,12.5-1.7,18.3-2.7c9.7-1.8,19.7-2.9,28.9-5.6
			c6.8-2,12.9-5,18.6-8.4c-4.1,5.7-8.7,11.3-14.2,16.4c-0.5,0.4-0.4,1.3,0.6,0.8c8.8-3.9,15.6-10.2,23.2-15.1
			c1.2-0.8,2.4-1.6,3.5-2.5c4.1-0.7,9-4.8,13.6-9.7c-1.1,2-2.8,3.9-3.8,5.9c-1.4,2.8-3,5.4-4.6,8.2c-2.1,3.7-7.2,9.7-6.4,13.8
			c0.1,0.7,1.3,0.2,1.7-0.1c4.1-3.4,7.1-8,9.9-11.9c2-2.8,3.9-5.5,5.9-8.3c0.5-0.7,1.1-1.6,1.6-2.5c-1.3,3.6-2.9,7.2-4.3,10.8
			c-1.7,4.2-4.8,8.6-5.6,12.9c0,0.3,0.1,0.5,0.6,0.5c4-0.4,8.1-2.1,11.8-4.2c-0.2,1.1-0.3,2.3-0.3,3.4c0,0.2,0.3,0.3,0.6,0.3
			c3.7,0,7.1-2.5,9.8-5.5c0.3-0.2,0.7-0.3,1.1-0.6c2.1-1.4,3.1-3.4,3.5-5.7c0.8-1.2,1.4-2.3,1.9-3c0.8-1.3,1.4-2.7,2-4.2
			c1.4,2,2.9,4,4.3,6c2.8,3.9,5.8,8.6,9.9,11.9c0.4,0.3,1.6,0.8,1.7,0.1c0.7-4.1-4.3-10.1-6.4-13.8c-1.5-2.7-3.2-5.4-4.6-8.2
			c-0.8-1.6-2-3.1-3.1-4.7c0-0.1,0-0.2,0-0.4c4.3,4.5,9,8.3,12.8,8.9c1.1,0.9,2.3,1.7,3.5,2.5c7.6,4.9,14.4,11.2,23.3,15.1
			c1,0.4,1.1-0.4,0.6-0.8c-5.6-5.1-10.2-10.6-14.2-16.4c5.7,3.4,11.9,6.4,18.6,8.4c9.2,2.7,19.3,3.8,28.9,5.6
			c5.8,1.1,12.2,3.3,18.3,2.7c0.9-0.1,0.1-1-0.2-1.2c-3.5-2-7.5-3.4-10.8-5.6c-2.9-2-5.9-4-8.8-6.1c-5.3-3.8-10.3-7.8-15.6-11.5
			c13.6,3.7,27.1,8.3,41.2,10.8c1.3,0.2,0.7-1,0-1.2c-10.8-3.7-20.1-8.8-28.7-14.6c0.1,0.1,0.3,0.1,0.4,0.2
			c17.6,7.7,36.2,13.5,55.3,19.3c5.3,1.6,11.4,2.7,16.4,4.7c1.4,0.6,3.6,1.7,5.3,1.3c3.3-0.6-1.5-4.9-2.3-5.4
			c-7.3-5-14.9-10.4-21.7-15.8c-5.5-4.3-11.4-8.5-16.9-12.8c8.8,4.4,16.3,9.8,24.5,14.7c4.2,2.6,8.6,5,12.8,7.5
			c1.8,1,3.4,1.9,5.7,2.2c0.3,0,0.6-0.1,0.6-0.4c0.5-3-2.9-5.7-4.5-8.4c-2.5-4.2-7.7-8.6-11.7-12.2c-9-7.8-15.7-16.4-25.5-23.6
			c7.2,2.3,13.7,5,21.8,6c4.9,0.6,9.8,1.2,14.6,1.9c3.1,0.5,5.7,0.6,8.5-0.3C346.4,375.3,346.4,375,346.3,374.7z M178.6,424.3
			c-3.9,3.3-3.3,0.4-2.8-1.9c0.1-0.1,0.3-0.2,0.4-0.2c1.3,0.6,2.5,0.6,3.6,0.3c0.2,0.1,0.4,0.1,0.6,0.1
			C179.8,423.2,179.2,423.7,178.6,424.3z M188,408.7c-0.1-0.9-0.3-1.7-0.4-2.5c-0.3-1.7-0.5-3.4-0.8-5.1c1.1,1.4,1.9,3,2.8,4.3
			C189.3,406.5,188.7,407.6,188,408.7z M188.3,412.3c0-0.7-0.1-1.3-0.1-2c0.5-0.6,0.9-1.3,1.3-1.9c0.3-0.5,0.6-1,1-1.6
			C189.9,408.7,189.2,410.5,188.3,412.3z"/>
		<path class="st8" d="M114.6,158.3c3.8-1.4,8-3.8,12.3-4.7c-10.8,11.3-20.6,22.9-32.4,33.8c4.8-2.3,9.3-5.1,12.8-6.9
			c11.8-6.2,22.9-13.3,35.6-18.6c1.2-0.5,2.5,0.5,1.8,1.3c-4.7,5.6-11.1,10.3-16.4,15.6c15-3.1,25.5-12.9,38.5-18.4
			c1.2-0.5,2.4,0.5,1.8,1.3c-3.7,5.2-10.2,8.9-15,13.5c13.3-4.3,22.9-12.6,36.3-17c1.1-0.3,2.2,0.2,1.9,1c-2.4,8.1-6,18.8-1.4,26.9
			c3.7-3.5,4.3-8.2,5.9-12.3c0.3-0.8,2.4-0.9,2.6,0c0.5,2.4,0.9,4.9,1.7,7.3c3-5.1,1.9-11.1,3.7-16.5c0.3-0.9,2.2-0.8,2.6,0
			c7.2,15.1,16.1,29.1,27.9,42.8c0.2,0.3,0.2,0.5,0.1,0.8c7.1,5,17.5,8.7,26.7,10.6c10.5,2.2,4.6-3.6,1.5-7.3
			c3.7,1.6,7.6,2.7,11.2,4.3c2.7,1.2,6.7,3.5,10.2,2.7c0.6-0.1,0.4-0.6,0.2-0.9c-2.3-2.8-5.6-5-8.2-7.6c-1.4-1.4-2.6-2.8-3.9-4.1
			c4.9,2.2,10.9,3.9,15.5,5.8c3.9,1.6,8.6,2.6,12.7,3.8c3.2,0.9,5.9,2.1,9.4,1.9c1-0.1,0-1.1-0.3-1.3c-7.1-4.1-15.4-7.1-22.4-11.4
			c-8.1-5.1-15.6-10.6-22.2-16.6c-12.1-11-22-22.8-32.9-34.3c4.3,0.9,8.5,3.2,12.3,4.7c2.1,0.8,4.6,2,6.9,1.1
			c0.3-0.1,0.2-0.5,0.1-0.7c-0.5-1.3-1.5-2.4-3.1-3.3c-3.1-1.8-5.4-3.8-7.7-6.1c-3.4-3.2-6.6-6.8-9.6-10.4c3,1.9,5.8,3.9,9.3,5.5
			c2.6,1.3,6.5,3.5,9.9,2.7c0.3-0.1,0.5-0.3,0.4-0.6c-0.8-3-4.4-4.1-7.1-6.3c-1.6-1.3-3.9-2.2-5.5-3.5c-2.7-2.4-5.3-4.8-7.7-7.4
			c-9.2-9.8-16.1-19.8-20.9-31c-2.7-6.2-5.2-12.4-7.5-18.6c0-0.1-0.1-0.2-0.1-0.3c-2.1-4.5-4-9-5.9-13.5c-4.1-10-6.6-20.3-9.3-30.6
			l0,0c0-0.1,0-0.2-0.1-0.3c-0.9-3.5-1.9-7-2.9-10.5c-0.6,18.2,1.2,36.5,6.6,54.3c3.1,10.2,7,20.4,11.3,30.4
			c4,9.2,10,17.8,14.5,26.9c0.3,0.7-1,1.5-2,1c-6.4-3.3-11.1-7.7-15.2-12.4c3.4,7,8.1,13.7,9.2,21.2c0.1,0.7-1.2,1.2-2,0.8
			c-13.4-6-19.7-15.9-26.6-25.4c1.3,7.5,5.9,14.7,3.6,22.4c-0.2,0.6-1.2,0.8-2,0.6c-11.6-4.8-8.9-16.5-12-24.9
			c-2.1,11.3-4.9,23.5-17.4,31.5c-0.8,0.5-2.4,0.2-2.3-0.7c1-10.3,6.4-20.1,8.3-30.3c-5.2,8.5-11.1,16.8-21.1,23.2
			c-1,0.7-2.5,0-2.2-0.9c1.9-6.8,5.5-13.3,8-20.1c-6.8,7.3-15.9,13.3-24.8,19.6c-2.7,1.9-5.6,3.9-8.6,5.7c3.1,0.2,6.5-1.7,8.8-2.8
			c3.4-1.7,6.3-3.6,9.3-5.5c-3.1,3.5-6.3,7.1-9.6,10.4c-2.4,2.3-4.7,4.3-7.7,6.1c-1.5,0.9-2.6,2-3.1,3.3c-0.1,0.2-0.2,0.6,0.1,0.7
			C109.9,160.3,112.5,159.1,114.6,158.3z"/>
		<path class="st8" d="M346.3,374.7c-0.9-2.1-4-3.1-6.6-4c-5.1-1.8-10.4-3.3-15.3-5.3c-6.1-2.6-11.8-5.4-17.4-8.4
			c-4.4-2.4-9.5-4.4-13.5-7.1c4,0.5,7.8,1.7,11.8,2.2c5.2,0.6,10.4,0.8,15.7,0.7c7.1-0.1,16-0.2,22.5-2.5c0.5-0.2,0-0.8-0.2-1
			c-1.4-1.1-3.2-1.6-5.3-1.9c-5.8-0.8-11.5-2.3-16.5-4.5c-9.7-4.3-19-9-27.6-14.4c-8-5-16.5-10.1-22.6-16.3c-0.9-0.9-4.1-4-6.6-7.1
			c3.6,2.2,7.3,4.3,10.9,6.4c1.7,1,4.4,2.7,6.5,1.4c0.3-0.2,0.2-0.5,0.1-0.7c-1-2.4-3.4-4.1-5.7-5.9c-2.4-1.9-4.5-3.9-6.6-6
			c2.7,1,5.1,2.1,8.2,2.9c4.1,1.1,8.1,2.4,12.2,3.5c4.8,1.3,11,3.8,16.5,3.1c0.5-0.1,0.4-0.5,0.3-0.7c-1.2-2.4-4.4-4.2-6.4-6.3
			c-3.1-3.4-7.9-6.5-11.9-9.5c-6.8-5-14.3-10.2-20.5-15.6c7.8,3,15.4,6,23.5,8.6c2.3,0.8,7.8,1.5,4.9-1.4
			c-7.3-7.5-19.1-13.5-28.7-19.7c5.1,0.9,10.2,3.3,15.2,4.4c5.3,1.1,11,2.5,16.6,2.9c5.8,0.4,11.6,0.3,17.4,0.4
			c3.9,0.1,8.1,0.6,11.8-0.6c0.9-0.3,0-1.1-0.5-1.3c-3.6-1.7-8.4-1.5-12.4-2.6c-6.2-1.8-12.4-3.7-18.6-5.5
			c-12.8-3.8-25.3-8.2-37-13.4c-2.9-1.3-6.2-2.7-9.2-4.4c2.3,0.7,4.7,1.3,7.2,1.8c6.5,1.3,13.3,1.6,20,1.8c5.2,0.1,12.8,0.1,17.4-2
			c0.4-0.2,1.4-1.1,0.5-1.3c-10.8-2.1-20.7-5.7-29.7-10.1c3.2,0.6,6.4,1,9.7,1.3c6.4,0.5,16.5,0.5,20.9-3.4c0.3-0.2,0.8-1.1,0-1.1
			c-7.8-0.8-15.3-1.4-22.9-2.9c-9.4-1.9-17.1-5.9-24.8-9.8c-6-3-10.9-6.6-15.1-10.4c-0.3,0.2-0.8,0.3-1.2,0.2
			c-11.9-1.7-22.1-7.8-30.1-14.3c2.8,4,6.3,7.8,7.3,12.2c0.2,0.7-0.6,1.3-1.6,1.1c-14.5-1.7-18.3-12.6-29.2-17.8
			c0,5.2,2.9,21.4-6.8,18c-9.5-3.4-9.6-13.9-13.7-20.2c-6,6.9,1.1,17.8-9.8,23c-0.7,0.3-1.8,0-2-0.5c-2.4-6.4,0.8-12.7,0.2-19.1
			c-4.8,4-5.3,10-10.5,14c-0.8,0.6-2.3,0.1-2.3-0.7c-0.1-4.7,2.6-9.5,1.3-14.2c-5.5,2.7-8.4,8.2-12.2,11.8c-4.8,4.5-13,8.2-20,10.9
			c-1.1,0.4-2.1-0.3-2-1c1.5-5.9,5.7-11.3,6.5-17.3c-6.3,5.9-10.5,12.8-19.6,17.1c-1.2,0.6-2.3-0.5-1.8-1.3
			c2.7-4.2,6.1-8.2,7.1-12.7c-7.3,5.1-15.6,10.2-24.5,14.4c0.5-0.2,1-0.3,1.4-0.5c4.6-1.9,10.6-3.5,15.5-5.8
			c-1.3,1.4-2.5,2.8-3.9,4.1c-2.6,2.6-5.9,4.8-8.2,7.6c-0.2,0.3-0.4,0.8,0.2,0.9c3.5,0.9,7.5-1.5,10.2-2.7c3.7-1.6,7.6-2.7,11.3-4.3
			c-3.1,3.7-9,9.5,1.5,7.3c9.6-2,20.5-5.9,27.6-11.3c-2.2,5.1-8.6,8.9-12.8,13.1c-0.3,0.3-0.6,0.6-0.9,0.9c-2.5,1.6-5.1,3.1-7.5,4.5
			c-12.7,7.1-29,12.4-45.2,13.8c-0.7,0.1-1.9,0.9-1.2,1.4c0.3,0.2,0.6,0.3,0.9,0.5c10.8-0.2,21.4-0.4,31.8-3.2
			c10.8-2.9,21-6.9,32.1-9.3c1.3-0.3,2.3,0.9,1.3,1.5c-5.1,3.3-11.2,5.8-15.6,9.5c7.4-0.4,14.5-4.2,20.5-6.8
			c8.1-3.5,15.8-7.3,23.7-10.9c1.5-0.7,2.7,0.9,1.3,1.6c-0.4,0.6-0.7,1.1-1.1,1.7c4-1,7.4-2.5,10.6-4.7c0.1-0.1,0.3-0.2,0.4-0.2
			c1.7-1.1,3.3-2.3,4.7-3.6c1-0.9,3.3-0.1,2.3,0.9c-4.9,5.2-8.1,11-11.6,16.7c7.5-4.5,12.8-10.6,21.8-13.9c0.8-0.3,2.1,0.1,2,0.8
			c-0.5,3.9-3.7,7-6.2,10.4c6-4,10.2-9.3,14.4-14.2c0.6-0.7,2.1-0.5,2.4,0.2c4.7,10.3,9.6,20.8,18.2,29.9c-1-6-2.3-12.2-5.6-17.8
			c-0.6-1.1,1.9-1.6,2.6-0.5c2.6,4.6,8.5,9.2,15.1,11.5c0.6-3.1-0.7-6.1-1.6-9.2c-0.2-0.8,1.3-1.7,2.2-0.9c5.9,5.2,9.6,11.7,16,16.6
			c6.2,4.8,13.3,8.8,21.1,12.5c1.3,0.6,0.4,1.8-1,1.7c-13.3-1.2-27-0.9-40-3.5c-8.9-1.8-17.1-4.7-25.4-7.6
			c6.8,5.9,16.5,9.6,24.9,14.5c1.1,0.6-0.1,1.7-1.3,1.5c-12-2-25.4-5.3-35.1-11c2.8,4.5,7.1,8.4,10.4,12.7c0.5,0.6-0.1,1.4-1.2,1.4
			c-7.6-0.1-13.9-3.3-19.6-6.6c-5.7-3.3-9.3-8.8-15.7-11.5c-2.3,4.2-4.1,8.8-7.6,12.6c-3.3,3.6-7.5,6.7-11.8,9.8
			c-8.1,5.8-17.7,12.6-29.3,14.7c-1,0.2-1.9-0.5-1.6-1.1c2.8-7.3,9.6-13.3,14.3-20c-3.7,3.8-7.3,7.7-12.1,10.9
			c-6,4.1-12.7,7.5-19.3,11c-1.1,0.6-2.4-0.5-1.8-1.3c6.8-8.3,19.9-16.1,22.5-25.8c-10.6,5.4-20.9,11-32.2,15.8
			c-5.4,2.3-10.7,4.7-16.3,6.8c-1.1,2,3.4,1.4,5.5,0.7c8.1-2.7,15.7-5.7,23.5-8.6c-6.3,5.4-13.8,10.6-20.5,15.6
			c-4,2.9-8.7,6.1-11.9,9.5c-2,2.2-5.2,3.9-6.4,6.3c-0.1,0.2-0.1,0.6,0.3,0.7c5.4,0.8,11.6-1.8,16.5-3.1c4.1-1.1,8.1-2.4,12.2-3.5
			c3.1-0.8,5.5-1.9,8.2-2.9c-2.2,2-4.3,4.1-6.6,6c-2.3,1.8-4.7,3.6-5.7,5.9c-0.1,0.2-0.2,0.5,0.1,0.7c2.2,1.3,4.8-0.4,6.5-1.4
			c3.7-2.1,7.3-4.3,10.9-6.4c-2.5,3.2-5.6,6.2-6.6,7.1c-6.1,6.2-14.6,11.3-22.6,16.3c-2.9,1.8-6,3.6-9.1,5.3
			c7.5-1.9,14.7-5.2,20.9-8.1c10.3-4.9,19.9-10.4,29.5-15.9c1.4-0.8,2.9,0.4,1.9,1.3c-5.9,5.3-12.2,10.4-18.9,15.3
			c14.9-3,27.2-11.5,39-18c1.3-0.7,3.1,0.4,1.9,1.3c-8.3,6.5-17.5,12.3-25,19.3c11.3,0,22.3-5.1,31-9.6c9.9-5.2,19.1-11.1,27.5-17.4
			c1.1-0.8,2.7,0.2,2.1,1.1c-2.6,4-5.7,7.9-9.4,11.4c6.4-2.4,11.9-5.9,17.3-9.3c1.2-0.7,2.7,0.2,2.1,1.1c-1.6,2.3-3.4,4.5-5,6.8
			c4.6-2.4,8.4-5.4,12.9-7.9c1-0.6,2.6-0.1,2.2,0.9c-3,7.6-2.2,16.2,4.3,22.7c3-6.2,2.6-12.9,3.7-19.3c0.2-1,2.1-1.3,2.6-0.2
			c2,3.8,3,9.9,7.6,12.5c3.3,1.8,2.7-6.8,2.7-7.6c-0.2-2.2-0.6-4.4-0.2-6.6c0.1-0.9,1.7-1.3,2.5-0.5c8.1,8.5,18.8,16.1,31.5,21.2
			c10.3,4.2,21.3,7.6,30.2,13.2c0.8,0.5,0.2,1.6-0.9,1.6c-14.8-0.9-29.4-2.7-43.9-4.8c10.3,5.9,21.9,10,33.9,14.2
			c1,0.3,0.8,1.6-0.3,1.7c-16,1.6-33.7,2.3-49.7,0.4c-14.3-1.7-27.1-6-40.3-9.8c4.2,7.3,12.8,13,15.7,20.7c0.3,0.8-0.9,1.5-2,1
			c-10.4-4.4-15.9-12.5-26.2-16.8c-0.8,5.7,0.2,11.3-4,16.5c-0.5,0.6-1.8,0.6-2.3,0c-4.2-5.5-4.3-12-8.3-17.5
			c-4.9,5.9-5,15-15.5,17.5c-0.7,0.2-1.4-0.2-1.6-0.6c-3.3-8.1,5.3-15.2,6-23c-4.2,3.9-7.7,8.1-13.4,11.1c-1.1,0.6-2.4-0.5-1.8-1.3
			c3-3.7,5.7-7.5,7.2-11.6c-15.6,3.3-25.4,14.4-41.7,17.1c-1.2,0.2-2-0.6-1.5-1.4c2.8-4.5,7.2-8.5,11-12.6
			c-3.1,2.1-6.6,3.9-10.8,5.2c-0.8,0.2-1.7-0.4-1.7-0.9c-0.1-3.9,2.3-7.4,4.2-11c-12.8,6.3-27.7,11.1-42.7,14c-2.6,0.5-5.3,1-8,1.4
			c2,0.1,4,0.1,5.9,0.1c5.3,0.1,10.5-0.1,15.7-0.7c4-0.4,7.8-1.6,11.8-2.2c-4,2.7-9.1,4.7-13.5,7.1c-5.6,3.1-11.3,5.9-17.4,8.4
			c-4.9,2.1-10.2,3.5-15.3,5.3c-2.7,0.9-5.8,1.9-6.6,4c-0.1,0.3-0.1,0.6,0.3,0.7c2.9,0.9,5.5,0.8,8.5,0.3c4.9-0.7,9.7-1.3,14.6-1.9
			c8.1-1,14.6-3.8,21.8-6c-1.7,1.2-3.3,2.5-4.8,3.8c10.7-2.5,21.2-5.4,31.9-7.9c1.5-0.3,2.3,1.2,1,1.7c-10.9,4.6-21.8,9.5-31.5,15.3
			c14.6-2,28.1-6.5,40.8-11.8c1.4-0.6,2.6,0.7,1.6,1.4c-4.2,3.5-9.6,6.3-13.9,9.7c13.6-1.3,25.7-6.5,39.3-8c1.2-0.1,2.4,0.9,1.3,1.5
			c-6.9,4.2-14.8,7.5-22.1,11.2c22.6-1.1,42-11.7,64.5-13.7c1.3-0.1,1.6,1,0.9,1.6c-5.8,5-13.4,8.7-21.3,11.9
			c15.4-2.4,29.9-8.4,42.1-15c1.4-0.7,3,0.4,1.9,1.3c-3.9,3.4-7.9,6.7-11.6,10.2c11-2.5,20.1-8.5,28.4-13.8c1.2-0.7,2.7,0.2,2.1,1.1
			c-3,4.8-5.2,10.7-2.9,15.9c3.6-4.3,5.8-9,7.7-13.8c0.3-0.8,2.3-0.9,2.6,0c1.8,6.5,2.8,14.8,12,18.3c3.3-5.8,4-11.9,4.7-18.1
			c0.1-1.2,2.7-1.2,2.7,0c-0.3,13.1,13.3,23.7,27.9,31c8.1,4,16.9,7.5,26,10.3c0.4,0.1,0.9,0.2,1.3,0.3c1.3,0.2,0.7-1,0-1.2
			c-10.8-3.7-20.1-8.8-28.7-14.6c0.1,0.1,0.3,0.1,0.4,0.2c17.6,7.7,36.2,13.5,55.3,19.3c5.3,1.6,11.4,2.7,16.4,4.7
			c1.4,0.6,3.6,1.7,5.3,1.3c3.3-0.6-1.5-4.9-2.3-5.4c-7.3-5-14.9-10.4-21.7-15.8c-5.5-4.3-11.4-8.5-16.9-12.8
			c8.8,4.4,16.3,9.8,24.5,14.7c4.2,2.6,8.6,5,12.8,7.5c1.8,1,3.4,1.9,5.7,2.2c0.3,0,0.6-0.1,0.6-0.4c0.5-3-2.9-5.7-4.5-8.4
			c-2.5-4.2-7.7-8.6-11.7-12.2c-9-7.8-15.7-16.4-25.5-23.6c7.2,2.3,13.7,5,21.8,6c4.9,0.6,9.8,1.2,14.6,1.9c3.1,0.5,5.7,0.6,8.5-0.3
			C346.4,375.3,346.4,375,346.3,374.7z"/>
		<path class="st5" d="M157.2,93.6c14.4-23.5,26-49,24.4-74.7C175,39,167.7,59,158.7,78.6c-1.4,3.1-3.1,6.1-4.9,9
			c-1.4,3.6-2.9,7.2-4.4,10.8c-3.8,8.8-8.8,16.7-15.2,24.5C143.5,113.8,150.9,103.9,157.2,93.6z"/>
		<path class="st5" d="M49.2,217.3c4.9-1.7,9.6-3.9,14-6.1c11.1-5.7,21-12.2,30.5-19.1c9-6.5,18.7-13,25-21c5-6.3,8.4-13.1,11.6-20
			c-2.6,2.7-5.4,5.3-8.4,7.8c-9,9.8-17.7,19.6-27.9,28.9c-6.6,6-14.1,11.6-22.2,16.6c-7,4.4-15.3,7.3-22.4,11.4
			C49.1,216.2,48.2,217.3,49.2,217.3z"/>
		<path class="st5" d="M138.1,197.7c-5,5-10.2,9.9-15.9,14.5c-2.9,2.9-6.6,5.5-9.4,8.4c-0.3,0.3-0.6,0.6-0.9,0.9
			c-2.5,1.6-5.1,3.1-7.5,4.5c-12.7,7.1-29,12.4-45.2,13.8c-0.3,0-0.7,0.2-1,0.4C94.8,239,129,223.3,138.1,197.7z"/>
		<path class="st5" d="M43.4,268c-1.7,0.5-3.6,0.7-5.4,1c16.8-1.3,33.6-6.2,48-11.3c14.9-5.3,24.9-12.5,33.7-21.6
			c-5,2.9-9.9,5.9-15.1,8.6c2.9-1.1,5.6-2.2,8.3-3.4c-3.4,3.2-9.3,5.7-14,7.8c-11.7,5.2-24.2,9.6-37,13.4
			C55.8,264.4,49.6,266.2,43.4,268z"/>
		<path class="st5" d="M21.7,347.2c-2,0.3-3.7,0.8-5,1.7c16-0.8,32.7-6.8,44.7-12.5C81.3,327,97,313.3,102,296.9
			c-6.2,4.5-11.8,9.3-17.5,14.1c3.5-2,7-4.1,10.5-6.1c-2.5,3.2-5.6,6.2-6.6,7.1c-6.1,6.2-14.6,11.3-22.6,16.3
			c-8.5,5.4-17.9,10.1-27.6,14.4C33.2,344.9,27.5,346.4,21.7,347.2z"/>
		<path class="st5" d="M89.6,384.5c-15.4,3.9-28.4,11.6-40.3,19.2c-8.5,5.4-18.9,10.9-26,17.6c0.6-0.2,1.2-0.5,1.7-0.7
			c5-2,11.1-3.1,16.4-4.7c2.1-0.6,4.1-1.3,6.2-1.9C63.4,405.5,77.4,395.2,89.6,384.5z"/>
		<path class="st5" d="M155.8,318c-11.3,11.7-18.1,25.5-21.4,39.4C149.7,348.6,154.5,331.4,155.8,318z"/>
		<path class="st5" d="M200.1,345.1c-6.1-6.3-12.9-12.2-20.2-17.8C184.2,334.3,191.4,340.2,200.1,345.1z"/>
		<path class="st5" d="M136,242.1c-7.7,9.4-18.2,17.6-26,27.1C127.9,266,133.2,253.8,136,242.1z"/>
		<path class="st5" d="M178.2,259.2c-1.1-8.2-2.9-16.9-10.1-23.5C168.4,244,172.3,252,178.2,259.2z"/>
		<path class="st5" d="M126.1,394.6c-12.1,11.1-25.9,21.3-41.4,30.1c2.6-0.6,5.2-1.2,7.7-1.7c2.3-0.4,4.6-0.8,7-1.2
			C111.7,414.7,121.2,405,126.1,394.6z"/>
		<path class="st5" d="M56.6,368.5c0.7-0.2,1.3-0.4,2-0.7c-9.9,7.3-16.6,15.8-25.5,23.6c-4.1,3.6-9.2,8-11.7,12.2
			c-0.6,1.1-1.6,2.2-2.5,3.3c24.6-18.6,47.3-38.3,69.2-58.4C75.5,353.5,65.6,360.7,56.6,368.5z"/>
	</g>
</g>
</svg>
