<?xml version="1.0" encoding="utf-8"?>
<!-- Generator: Adobe Illustrator 26.0.1, SVG Export Plug-In . SVG Version: 6.00 Build 0)  -->
<svg version="1.1" id="Layer_1" xmlns="http://www.w3.org/2000/svg" xmlns:xlink="http://www.w3.org/1999/xlink" x="0px" y="0px"
	 viewBox="0 0 588.4 512.4" style="enable-background:new 0 0 588.4 512.4;" xml:space="preserve">
<style type="text/css">
	.st0{fill:#5B3511;}
	.st1{fill:#F3FF00;}
	.st2{fill:#E7FF15;}
	.st3{display:none;fill:#E7FF15;}
	.st4{display:none;fill:#5B3511;}
	.st5{fill:#004220;}
	.st6{fill:#6D3F14;}
	.st7{opacity:0.5;fill:#5B3511;}
	.st8{fill:#749133;}
</style>
<path class="st0" d="M258.8,67.3"/>
<ellipse class="st1" cx="282.7" cy="241.1" rx="231.7" ry="231.7"/>
<path class="st2" d="M204.3,76.7"/>
<path class="st3" d="M-122.7,402.7"/>
<path class="st4" d="M-122.7,402.7"/>
<polyline class="st3" points="-198.9,437.3 -136.5,524.8 -198.9,519.3 -198.9,346 -147.1,346 "/>
<g>
	<g>
		<path class="st2" d="M206.8,112.2"/>
		<path class="st2" d="M322.1,60"/>
		<path class="st2" d="M172.4,135.4"/>
		<g>
			<g>
				<path class="st5" d="M385.6,180.6h-79.1v41.6h90.7l-9.4,50.5H223.9V42.8H389v50.8h-82.5v36.2h79.1V180.6z"/>
			</g>
		</g>
		<polygon class="st2" points="276.6,42.8 218.2,156 276.6,278 213.4,278 213.4,42.8 		"/>
		<rect x="172.4" y="42.8" class="st0" width="53.8" height="229.9"/>
		<path class="st0" d="M308.1,44.8l-0.6,1.2l-58.9,115.7l55.5,111.1l-27.5,0l-2.5,0l-47.8-97.1l-1.1-33
			c17.1-33.3,34.3-66.6,51.4-99.8c11.1-0.1,22.1-0.2,33.2-0.3C309.2,43.2,308.7,44,308.1,44.8z"/>
	</g>
	<path class="st0" d="M390,272.3l9.4-50.5h-11.5c-3,16.9-6.1,33.8-9.1,50.6C382.5,272.4,386.3,272.4,390,272.3z"/>
	<rect x="379.1" y="129.4" class="st0" width="8.8" height="50.8"/>
	<polygon class="st0" points="380.4,43.6 380.4,93.3 391.3,93.2 391.3,42.4 379.1,42.4 	"/>
</g>
<g>
	<g>
		<path class="st0" d="M338,388.5c-0.2-0.3-4.6,3-11,6.3c-5.2,2.6-10,5.4-14.8,8.6c0.1-0.1,0.1-0.1,0.2-0.2c0.3-0.3,0.6-0.5,0.8-0.8
			c0.1-0.1,0.1-0.1,0.1-0.2c1.1-1.2,2.2-2.4,3.3-3.7c2.4-2.8,5.6-5.9,6.7-9.2c0.1-0.2-0.2-0.1-0.3,0c0,0,0,0,0,0.1
			c-0.1,0-0.1,0-0.2,0.1c-4.7,4.7-9.2,9.5-13.6,14.4c-0.6,0.7-1.3,1.4-2,2c-2.4,1.6-4.8,3.3-7.2,4.9c-0.9,0.6-1.8,1.2-2.7,1.9
			c0-10.5,0.1-21,0.4-31.5c0.1-3.5,0.2-7.9,0.1-12.9c0.6-0.8,1.2-1.6,1.8-2.4c1.9-1.4,3.8-2.8,6.3-3.7c4.7-1.8,11.4-2.2,15.3-5.1
			c0.2-0.1,0.2-0.5-0.1-0.3c-2,1.1-5.4,1.6-7.7,2.1c-3,0.7-6,1.3-8.7,2.5c-1,0.4-2,0.9-2.9,1.4c0.2-0.3,0.5-0.6,0.7-0.9
			c0.4-0.5,0.8-1,1.2-1.5c0.6-0.6,1.1-1.2,1.6-1.8c0.2-0.2,0.4-0.5,0.6-0.7c3.9-3.3,8.1-6.4,12.5-9.3c0.7-0.5,0.4-1.5-0.5-0.8
			c-3.3,2.2-6.5,4.3-9.5,6.6c1.4-2.4,2.6-4.9,4.1-7.4c0.4-0.7-0.6-0.7-0.9-0.2c-2.6,3.6-5,7.3-7.6,11c-2.2,1.7-4.3,3.7-6.3,5.8
			c-0.1-9.8-0.4-21.5-0.8-34.1c1.7-0.7,3.4-1.4,5.2-1.9c4-1.3,8.5-1.4,12.6-2.5c0.2-0.1,0.5-0.6,0.2-0.5c-0.2,0-0.3,0.1-0.4,0.2
			c-0.1,0-0.1,0.1-0.1,0.1c-0.1-0.1-0.3-0.3-0.2-0.3c-1.2,0-2.4,0.2-3.5,0.4c-2.4,0.3-4.7,0.7-7,1.2c-2.1,0.5-4.1,1.3-6,2
			c0.2-0.2,0.4-0.4,0.6-0.5c2.3-1.9,4.4-3.8,6.7-5.7c0.7-0.5,1.3-1.1,2-1.6c3.4-1.2,7.4-1.4,10.9-2.6c0.3-0.1,0.6-0.2,1-0.3
			c0.6-0.1,1.2-0.3,1.8-0.4c0.1,0,0.3-0.2,0.5-0.4c0.8-0.3,1.5-0.8,1.8-1.3c0.1-0.3-0.3-0.2-0.4,0c-0.2,0.3-1.5,0.7-2.5,0.9
			c-2.6,0-5.2,1.1-7.8,1.3c-0.7,0.1-1.4,0.2-2,0.3c3-2.4,6.1-4.6,9.6-6.4c0.7-0.4,1.1-1.8-0.2-1.2c-3.1,1.3-5.9,3.2-8.7,5.3
			c0,0,0,0,0,0c0.1-0.2,0.1-0.4,0.2-0.6c0.6-2.1,1.6-4,2.7-6c0.5-0.9,1-1.8,1.4-2.7c0.3-0.7-0.8-0.4-1,0.1c-1.3,2.8-3.5,5.4-5.1,8.1
			c-0.9,1.5-1.9,2.8-3,4c-0.4,0.2-0.7,0.4-1.1,0.6c-1.4,0.8-2.5,1.8-3.9,2.6c-1.4,0.8-2.8,1.8-4.1,2.8c-0.4-13.1-1-26.9-1.6-40.1
			c0.4-0.7,0.7-1.4,1.1-2c1.2-1.6,2.4-3.3,3.6-4.8c1.2-1.4,2.3-2.9,3.4-4.4c2.3-1,5.5-2.3,6.1-2.6c3.1-1.6,6.4-3.1,9.1-5
			c0.2-0.1,0.1-0.4-0.2-0.2c-3.3,2.1-7.6,3.8-11.3,5.3c-0.8,0.3-1.6,0.6-2.5,1c1.6-2.1,3.1-4.2,4.7-6.2c3.1-3.9,6.2-7.5,8.7-11.7
			c0.4-0.7-0.2-0.9-0.8-0.6c-0.1-0.4-0.6-0.4-1,0c-3,3.4-5.8,6.9-8.7,10.3c0.5-2,1.3-6.4,1-6.4c0,0,0,0,0,0c0.2,0,0.3-0.2,0.3-0.3
			c0,0,0,0,0,0c0,0,0,0,0,0c0,0-0.1,0-0.1,0c-0.2,0-0.3,0.1-0.4,0.2c-1.5,2.7-1.7,5.7-2.8,8.5c-0.1,0.4-0.3,0.8-0.5,1.2
			c-0.5,0.7-1.1,1.3-1.6,2c-2.3,2.9-4.8,5.6-7.2,8.5c-0.4,0.5-0.8,1-1.2,1.5c-1.5-31.8-3.3-59.3-4.4-64.3c-0.2-0.8-0.9-0.7-1.5-0.3
			c-3,15.4-4.7,31-5.6,46.6c-2.7-3.1-5.6-6.1-8.5-9.1l0,0c0,0,0,0-0.1-0.1c-0.3-0.3-1,0.4-0.8,0.7c0.6,0.7,1.1,1.5,1.7,2.2
			c0.6,1.1,1.1,2.3,1.7,3.4c-0.6-0.2-1.2-0.5-1.7-0.7c-1.5-0.6-3-1.2-4.5-1.9c-0.7-0.3-2.3-0.7-2.7-1.3c-0.1-0.1-0.3,0.1-0.4,0.1
			c-0.5,1.1,3.8,2.7,4.7,3.3c1.7,0.9,3.4,1.7,5.1,2.6c0.3,0.1,0.5,0.3,0.8,0.4c0.8,1.4,1.5,2.7,2.4,4c0.7,1.1,1.3,2.1,1.9,3.2
			c0,7.9,0.2,15.9,0.4,23.9c0.1,3.6,0.1,7.2,0.1,10.8c-1.9-1.5-3.8-2.9-5.5-4.4c-4.8-4.2-5.5-10.5-6.9-15.9
			c-0.2-0.8-1.5,0.2-1.5,0.7c0.1,1.4,0.5,2.9,1,4.3c0.6,2.9,1.4,5.9,2.9,8.4c-0.2-0.1-0.4-0.2-0.5-0.4c-0.4-0.3-0.7-0.5-1.1-0.8
			c-0.5-0.4-0.9-0.8-1.4-1.2c0,0,0,0-0.1-0.1c0,0,0,0,0,0c-3.7-3-7.4-6-11.4-8.7c-0.2-0.2-0.7,0.3-0.5,0.5c2.1,2.1,4.3,4.1,6.5,6.1
			c-0.5,0-1,0-1.2-0.1c-2.4-0.4-4.5-0.6-6.9-0.3c-0.2,0-0.4,0.3-0.2,0.3c2.2,0.1,4.2,0.6,6.2,1.1c1.2,0.3,3.3,0.6,4.5,1.2
			c1.9,1.7,3.8,3.4,5.8,5.1c2.4,2.1,4.9,4.2,7.4,6.3c1,0.8,1.9,1.6,2.8,2.5c-0.1,12-0.5,23.9-1,35.9c-3.3-1.7-6.6-3.3-9.8-5.2
			c-1.4-0.8-2.4-1.7-3.2-2.6c-0.8-1.7-1.6-3.4-2.5-5.1c-1.1-2.1-1.5-4.2-2.8-6.2c-0.1-0.1-0.3,0.1-0.4,0.1c-0.3,0.7,0.3,1.5,0.5,2.2
			c0.4,1.6,0.7,3.2,1.3,4.8c0,0.1,0.1,0.2,0.1,0.3c0.1,0.3,0.2,0.6,0.3,1c0.4,1.1,0.8,2.7,1.5,3.8c-0.9-0.4-1.9-0.9-2.8-1.3
			c-1.4-0.7-4.8-2.9-6.4-2.8c-0.2,0-0.6,0.4-0.2,0.5c0.8,0,2.8,1.7,3.5,2.1c1.1,0.7,2.3,1.2,3.5,1.9c2.7,1.5,5.5,2.8,8.3,4.3
			c0.8,0.4,1.5,0.8,2.2,1.2c-3.7-0.5-7.4-1-11.1-0.7c-0.1,0-0.1,0-0.2,0l-0.1,0c-0.3,0-0.9,0.7-0.4,0.7c3.6,0.4,7.1,0.8,10.7,1.5
			c2.3,0.4,4.6,1.2,6.9,1.9c0.1,0.1,0.3,0.2,0.5,0.3c0.2,0.1,0.4,0.2,0.6,0.4c-0.1,2.9-0.3,5.9-0.4,8.8c-0.1,12.1-0.3,24.3-0.5,36.4
			c0,1.8-0.1,3.6-0.1,5.3c-1.8-0.9-3.6-1.7-5.3-2.7c-0.9-0.5-1.8-1-2.7-1.4c-1.4-1.7-2.7-3.5-4.1-5.3c-4-5.1-4.7-11.1-5.5-17
			c0-0.3-0.5,0.1-0.5,0.2c-0.8,2.7,0,5.7,0,8.4c0,0.2,0,0.4,0,0.6c-2-2.7-4.5-5.2-5.9-8c-0.1-0.3-0.7,0.2-0.6,0.4
			c0.8,3.9,4.6,7.8,6.8,11.3c1.3,2.1,2.4,4.4,3.7,6.5c-0.3-0.1-0.6-0.3-0.9-0.4c-1.8-0.9-3.5-1.9-5.2-3c-2.7-2-5.3-4.2-8-6.2
			c-2.4-1.8-6.4-6.3-10-6.4c-0.4,0-0.9,0.5-0.8,0.8c1,2.7,4.7,5.2,7.1,7.2c3.9,3.2,7.8,6.1,12.3,8.8c4.7,2.8,9.2,5.9,13.5,9.1
			c0.2,0.1,0.4,0.3,0.6,0.4c0,0,0,0,0,0.1c0.3,0.4,0.6,0.5,0.9,0.6c1.5,1.2,3.1,2.4,4.5,3.6c0.1,0.1,0.1,0.1,0.2,0.2
			c0.2,25.4,0.1,51.3-0.2,77.6c-0.2,17.4-0.6,34.6-1.1,51.6c3.5-2.8,7.4-5.8,11.8-8.7c3.4-2.2,6.6-4.2,9.7-5.9
			c-1-10.6-1.8-21.5-2.5-32.7c-1.4-23.5-1.9-46.1-1.6-67.5c0.2-0.2,0.4-0.4,0.6-0.6c4.6-3.3,8.3-7.4,13.4-10.1
			c4.5-2.4,8.5-5.5,12.7-8.4c0.3-0.2,0.6-0.4,0.9-0.6c0.5-0.3,0.9-0.5,1.4-0.8c0.1-0.1,0.3-0.2,0.4-0.4c1.3-0.9,2.5-1.7,3.9-2.5
			c0.6-0.3,1.5-0.7,2.1-1.2c0.5-0.3,1-0.6,1.4-1c0.2-0.2,0.2-0.5,0.1-0.6C337.4,389.3,338.1,388.6,338,388.5z"/>
		<path class="st6" d="M293.5,489.3c-0.1-5.1-0.4-10.1-0.8-15.2c-0.4-5,0-9.9-0.6-14.9c-1.2-9.6,0.3-19.3,0.4-28.9
			c0.1-9.3,0.9-19.1-0.8-28.3c0-0.2-0.5,0.1-0.5,0.2c0.8,4.5,0.1,9,0.1,13.5c0,4.7,0,9.3-0.1,14c-0.1,9.6-1.6,19.4-0.6,29
			c0.5,4.6,0.5,9.1,0.7,13.6c0.1,5,0.8,10,0.9,15.1c0.2,9.7,0.4,19.4,0.1,29.1c0,0.5,0.8,0.1,0.8-0.2
			C294,507.2,293.7,498.3,293.5,489.3z"/>
		<path class="st7" d="M338,388.5c-0.2-0.3-4.6,3-11,6.3c-5.2,2.6-10,5.4-14.8,8.6c0.1-0.1,0.1-0.1,0.2-0.2c0.3-0.3,0.6-0.5,0.8-0.8
			c0.1-0.1,0.1-0.1,0.1-0.2c1.1-1.2,2.2-2.4,3.3-3.7c2.4-2.8,5.6-5.9,6.7-9.2c0.1-0.2-0.2-0.1-0.3,0c0,0,0,0,0,0.1
			c-0.1,0-0.1,0-0.2,0.1c-4.7,4.7-9.2,9.5-13.6,14.4c-0.6,0.7-1.3,1.4-2,2c-2.4,1.6-4.8,3.3-7.2,4.9c-0.9,0.6-1.8,1.2-2.7,1.9
			c0-10.5,0.1-21,0.4-31.5c0.1-3.5,0.2-7.9,0.1-12.9c0.6-0.8,1.2-1.6,1.8-2.4c1.9-1.4,3.8-2.8,6.3-3.7c4.7-1.8,11.4-2.2,15.3-5.1
			c0.2-0.1,0.2-0.5-0.1-0.3c-2,1.1-5.4,1.6-7.7,2.1c-3,0.7-6,1.3-8.7,2.5c-1,0.4-2,0.9-2.9,1.4c0.2-0.3,0.5-0.6,0.7-0.9
			c0.4-0.5,0.8-1,1.2-1.5c0.6-0.6,1.1-1.2,1.6-1.8c0.2-0.2,0.4-0.5,0.6-0.7c3.9-3.3,8.1-6.4,12.5-9.3c0.7-0.5,0.4-1.5-0.5-0.8
			c-3.3,2.2-6.5,4.3-9.5,6.6c1.4-2.4,2.6-4.9,4.1-7.4c0.4-0.7-0.6-0.7-0.9-0.2c-2.6,3.6-5,7.3-7.6,11c-2.2,1.7-4.3,3.7-6.3,5.8
			c-0.1-9.8-0.4-21.5-0.8-34.1c1.7-0.7,3.4-1.4,5.2-1.9c4-1.3,8.5-1.4,12.6-2.5c0.2-0.1,0.5-0.6,0.2-0.5c-0.2,0-0.3,0.1-0.4,0.2
			c-0.1,0-0.1,0.1-0.1,0.1c-0.1-0.1-0.3-0.3-0.2-0.3c-1.2,0-2.4,0.2-3.5,0.4c-2.4,0.3-4.7,0.7-7,1.2c-2.1,0.5-4.1,1.3-6,2
			c0.2-0.2,0.4-0.4,0.6-0.5c2.3-1.9,4.4-3.8,6.7-5.7c0.7-0.5,1.3-1.1,2-1.6c3.4-1.2,7.4-1.4,10.9-2.6c0.3-0.1,0.6-0.2,1-0.3
			c0.6-0.1,1.2-0.3,1.8-0.4c0.1,0,0.3-0.2,0.5-0.4c0.8-0.3,1.5-0.8,1.8-1.3c0.1-0.3-0.3-0.2-0.4,0c-0.2,0.3-1.5,0.7-2.5,0.9
			c-2.6,0-5.2,1.1-7.8,1.3c-0.7,0.1-1.4,0.2-2,0.3c3-2.4,6.1-4.6,9.6-6.4c0.7-0.4,1.1-1.8-0.2-1.2c-3.1,1.3-5.9,3.2-8.7,5.3
			c0,0,0,0,0,0c0.1-0.2,0.1-0.4,0.2-0.6c0.6-2.1,1.6-4,2.7-6c0.5-0.9,1-1.8,1.4-2.7c0.3-0.7-0.8-0.4-1,0.1c-1.3,2.8-3.5,5.4-5.1,8.1
			c-0.9,1.5-1.9,2.8-3,4c-0.4,0.2-0.7,0.4-1.1,0.6c-1.4,0.8-2.5,1.8-3.9,2.6c-1.4,0.8-2.8,1.8-4.1,2.8c-0.4-13.1-1-26.9-1.6-40.1
			c0.4-0.7,0.7-1.4,1.1-2c1.2-1.6,2.4-3.3,3.6-4.8c1.2-1.4,2.3-2.9,3.4-4.4c2.3-1,5.5-2.3,6.1-2.6c3.1-1.6,6.4-3.1,9.1-5
			c0.2-0.1,0.1-0.4-0.2-0.2c-3.3,2.1-7.6,3.8-11.3,5.3c-0.8,0.3-1.6,0.6-2.5,1c1.6-2.1,3.1-4.2,4.7-6.2c3.1-3.9,6.2-7.5,8.7-11.7
			c0.4-0.7-0.2-0.9-0.8-0.6c-0.1-0.4-0.6-0.4-1,0c-3,3.4-5.8,6.9-8.7,10.3c0.5-2,1.3-6.4,1-6.4c0,0,0,0,0,0c0.2,0,0.3-0.2,0.3-0.3
			c0,0,0,0,0,0c0,0,0,0,0,0c0,0-0.1,0-0.1,0c-0.2,0-0.3,0.1-0.4,0.2c-1.5,2.7-1.7,5.7-2.8,8.5c-0.1,0.4-0.3,0.8-0.5,1.2
			c-0.5,0.7-1.1,1.3-1.6,2c-2.3,2.9-4.8,5.6-7.2,8.5c-0.4,0.5-0.8,1-1.2,1.5c-1-20.7-2.1-39.5-3-51.5c0.3,13.7-0.6,27.4-0.7,41.2
			c-0.2,19.8,0.6,39.7,0.3,59.5c-0.1,12.1,0,24.2-0.7,64.1c-0.5,30.2-1.4,75.6-2.9,134.6c2.3-1.2,4.7-2.4,7.1-3.7
			c2.1-1.1,4.2-2.3,6.2-3.4c-0.9-10.9-1.6-22.1-2.3-33.5c-1.2-23.4-1.7-45.9-1.6-67.5c0.2-0.2,0.4-0.4,0.6-0.6
			c4.6-3.3,8.3-7.4,13.4-10.1c4.5-2.4,8.5-5.5,12.7-8.4c0.3-0.2,0.6-0.4,0.9-0.6c0.5-0.3,0.9-0.5,1.4-0.8c0.1-0.1,0.3-0.2,0.4-0.4
			c1.3-0.9,2.5-1.7,3.9-2.5c0.6-0.3,1.5-0.7,2.1-1.2c0.5-0.3,1-0.6,1.4-1c0.2-0.2,0.2-0.5,0.1-0.6
			C337.4,389.3,338.1,388.6,338,388.5z"/>
		<path class="st6" d="M290.7,273.9c0-0.2-0.3,0-0.3,0.1c0,21.6,0.5,43.2,1.3,64.7c0,0.1,0.3,0,0.3-0.1c0.4-10.7,0.7-21.5,0.7-32.3
			C292.6,295.5,290.8,284.7,290.7,273.9z"/>
		<path class="st6" d="M286.1,334c0-0.1-0.2,0.1-0.2,0.1c0.6,7.3-1.1,14.8-0.9,22.1c0.3,8.5-1.1,17-0.9,25.6c0,0.2,0.4,0,0.4-0.2
			c0.2-4.2,0.5-8.4,0.9-12.6c0.5-4.1,1.3-8.2,0.9-12.3C285.5,349.4,288.9,341.2,286.1,334z"/>
	</g>
	<g>
		<path class="st5" d="M397.8,403.6c-0.5-1.5-2.5-2.2-4.1-2.9c-3.2-1.3-6.5-2.3-9.5-3.8c-3.8-1.8-7.3-3.8-10.8-6
			c-2.8-1.7-5.9-3.1-8.4-5.1c2.5,0.4,4.8,1.2,7.3,1.5c3.3,0.4,6.5,0.6,9.7,0.5c4.4-0.1,10-0.2,14-1.8c0.3-0.1,0-0.6-0.1-0.7
			c-0.9-0.8-2-1.2-3.3-1.4c-3.6-0.5-7.1-1.6-10.2-3.2c-6-3.1-11.8-6.4-17.2-10.3c-5-3.6-10.2-7.2-14.1-11.6
			c-0.6-0.7-2.5-2.8-4.1-5.1c2.3,1.5,4.5,3.1,6.8,4.6c1.1,0.7,2.7,1.9,4.1,1c0.2-0.1,0.1-0.3,0.1-0.5c-0.6-1.7-2.1-2.9-3.6-4.2
			c-1.5-1.3-2.8-2.8-4.1-4.2c1.7,0.7,3.2,1.5,5.1,2.1c2.6,0.8,5,1.7,7.6,2.5c3,1,6.9,2.7,10.2,2.2c0.3,0,0.3-0.3,0.2-0.5
			c-0.7-1.7-2.7-3-4-4.5c-1.9-2.4-4.9-4.7-7.4-6.7c-4.2-3.6-8.9-7.3-12.8-11.1c4.8,2.1,9.6,4.3,14.6,6.2c1.5,0.5,4.8,1,3.1-1
			c-4.5-5.3-11.9-9.6-17.8-14c3.2,0.7,6.3,2.4,9.4,3.1c3.3,0.8,6.8,1.8,10.3,2c3.6,0.3,7.2,0.2,10.9,0.3c2.5,0.1,5,0.4,7.3-0.4
			c0.6-0.2,0-0.8-0.3-1c-2.2-1.2-5.2-1-7.7-1.9c-3.9-1.3-7.7-2.6-11.6-3.9c-8-2.7-15.7-5.8-23-9.6c-1.8-0.9-3.9-1.9-5.7-3.1
			c1.4,0.5,2.9,0.9,4.5,1.3c4,0.9,8.3,1.2,12.5,1.3c3.3,0.1,8,0.1,10.8-1.4c0.3-0.1,0.9-0.8,0.3-0.9c-6.7-1.5-12.9-4-18.5-7.2
			c2,0.4,4,0.7,6,0.9c4,0.4,10.3,0.3,13-2.4c0.2-0.2,0.5-0.8,0-0.8c-4.8-0.6-9.5-1-14.3-2.1c-5.8-1.3-10.6-4.2-15.4-7
			c-3.7-2.2-6.8-4.7-9.5-7.5c-0.1-0.2-0.2-0.4-0.3-0.6c4.4,3.8,11.2,6.6,17.2,8c6.5,1.6,2.8-2.6,0.9-5.2c2.3,1.1,4.7,1.9,7,3.1
			c1.7,0.9,4.2,2.5,6.4,1.9c0.4-0.1,0.3-0.5,0.1-0.7c-1.4-2-3.5-3.5-5.1-5.4c-0.9-1-1.6-2-2.4-2.9c3.1,1.6,6.8,2.8,9.7,4.1
			c2.4,1.1,5.3,1.8,7.9,2.7c2,0.7,3.7,1.5,5.8,1.3c0.6,0,0-0.8-0.2-0.9c-4.4-3-9.6-5-13.9-8.1c-5.1-3.6-9.7-7.5-13.8-11.8
			c-7.5-7.8-13.7-16.3-20.5-24.4c2.7,0.6,5.3,2.3,7.7,3.3c1.3,0.6,2.9,1.4,4.3,0.8c0.2-0.1,0.1-0.4,0.1-0.5c-0.3-1-0.9-1.7-1.9-2.4
			c-1.9-1.3-3.3-2.7-4.8-4.3c-2.1-2.3-4.1-4.9-6-7.4c1.8,1.4,3.6,2.7,5.8,3.9c1.6,0.9,4,2.5,6.2,1.9c0.2-0.1,0.3-0.2,0.3-0.4
			c-0.5-2.1-2.7-2.9-4.4-4.5c-1-0.9-2.4-1.5-3.4-2.5c-1.7-1.7-3.3-3.4-4.8-5.3c-5.7-7-10-14.1-13-22.1c-1.7-4.4-3.2-8.8-4.7-13.2
			c0-0.1,0-0.2-0.1-0.2c-1.3-3.2-2.5-6.4-3.7-9.6c-2.6-7.1-4.1-14.5-5.8-21.8c0,0,0,0,0,0c0-0.1,0-0.2,0-0.2c-1-4.3-2-8.5-3.3-12.7
			c0,0,0,0,0,0c-4.1,14.7-8.8,29.4-14.5,43.7c-0.9,2.2-1.9,4.3-3,6.4c-0.9,2.6-1.8,5.1-2.8,7.7c-3,8-7.3,15.1-13,22.1
			c-1.5,1.8-3.1,3.6-4.8,5.3c-1,1-2.4,1.6-3.4,2.5c-1.7,1.6-3.9,2.4-4.4,4.5c0,0.2,0,0.3,0.3,0.4c2.1,0.6,4.5-1,6.2-1.9
			c2.1-1.2,3.9-2.6,5.8-3.9c-1.9,2.5-3.9,5.1-6,7.4c-1.5,1.6-2.9,3-4.8,4.3c-1,0.7-1.6,1.4-1.9,2.4c0,0.1-0.1,0.4,0.1,0.5
			c1.4,0.6,3-0.3,4.3-0.8c2.4-1,5-2.7,7.7-3.3c-6.8,8.2-13,16.6-20.5,24.4c-4.1,4.3-8.7,8.2-13.8,11.8c-4.3,3.1-9.5,5.2-13.9,8.1
			c-0.2,0.1-0.8,0.9-0.2,0.9c2.2,0.2,3.8-0.7,5.8-1.3c2.6-0.8,5.5-1.6,7.9-2.7c2.9-1.3,6.6-2.5,9.7-4.1c-0.8,1-1.5,2-2.4,2.9
			c-1.6,1.9-3.7,3.4-5.1,5.4c-0.2,0.2-0.3,0.6,0.1,0.7c2.2,0.6,4.7-1,6.4-1.9c2.3-1.2,4.7-1.9,7-3.1c-1.9,2.6-5.6,6.8,0.9,5.2
			c6-1.5,12.8-4.2,17.2-8c-1.4,3.6-5.3,6.3-7.9,9.3c-0.2,0.2-0.4,0.4-0.6,0.6c-1.6,1.1-3.2,2.2-4.7,3.2c-7.9,5.1-18,8.8-28.1,9.8
			c-0.4,0-1.2,0.7-0.7,1c2.2,1.5,6.2,2,9,2.5c2.3,0.4,4.7,0.2,7-0.2c-1.4,0.6-2.8,1.2-4.1,1.8c-1.6,0.7-3.6,1.1-4.8,2.2
			c-0.2,0.2-0.4,0.6,0,0.8c1.6,0.4,3.5-0.1,5.1-0.3c2.4-0.3,4.8-0.6,7.2-1.1c5.3-1.1,10.3-3.2,14.9-5.6c-2.1,2.3-5.8,4.1-8.7,5.5
			c-7.3,3.7-15.1,6.9-23,9.6c-3.9,1.3-7.7,2.6-11.6,3.9c-2.4,0.8-5.5,0.7-7.7,1.9c-0.3,0.2-0.9,0.7-0.3,1c2.3,0.9,4.9,0.5,7.3,0.4
			c3.6-0.1,7.2,0,10.9-0.3c3.5-0.3,7-1.3,10.3-2c3.1-0.7,6.3-2.4,9.4-3.1c-6,4.4-13.3,8.7-17.9,14c-1.8,2.1,1.6,1.6,3.1,1
			c5-1.9,9.8-4,14.6-6.2c-3.9,3.9-8.6,7.6-12.8,11.1c-2.5,2.1-5.4,4.3-7.4,6.7c-1.2,1.6-3.2,2.8-4,4.5c-0.1,0.2-0.1,0.4,0.2,0.5
			c3.4,0.5,7.2-1.2,10.2-2.2c2.5-0.8,5-1.7,7.6-2.5c1.9-0.6,3.4-1.4,5.1-2.1c-1.3,1.4-2.7,2.9-4.1,4.2c-1.4,1.3-3,2.6-3.6,4.2
			c-0.1,0.2-0.1,0.4,0.1,0.5c1.3,0.9,3-0.3,4.1-1c2.3-1.5,4.5-3,6.8-4.6c-1.5,2.2-3.5,4.4-4.1,5.1c-3.8,4.4-9.1,8-14.1,11.6
			c-5.3,3.8-11.1,7.2-17.2,10.3c-3.1,1.6-6.6,2.7-10.2,3.2c-1.3,0.2-2.4,0.6-3.3,1.4c-0.1,0.1-0.4,0.6-0.1,0.7c4,1.6,9.6,1.7,14,1.8
			c3.3,0.1,6.5-0.1,9.8-0.5c2.5-0.3,4.9-1.2,7.3-1.5c-2.5,2-5.6,3.4-8.4,5.1c-3.5,2.2-7,4.2-10.8,6c-3.1,1.5-6.3,2.5-9.5,3.8
			c-1.7,0.6-3.6,1.4-4.1,2.9c-0.1,0.2-0.1,0.4,0.2,0.5c1.8,0.7,3.4,0.5,5.3,0.2c3-0.5,6.1-0.9,9.1-1.3c5-0.7,9.1-2.7,13.6-4.3
			c-6.2,5.2-10.3,11.3-15.9,16.8c-2.5,2.5-5.8,5.7-7.3,8.7c-1,1.9-3.1,3.8-2.8,6c0,0.1,0.2,0.3,0.4,0.3c1.4-0.2,2.5-0.9,3.6-1.6
			c2.7-1.8,5.4-3.5,8-5.3c5.1-3.5,9.8-7.4,15.2-10.5c-3.4,3.1-7.1,6.1-10.5,9.1c-4.2,3.8-9,7.7-13.5,11.3c-0.5,0.4-3.5,3.4-1.4,3.8
			c1.1,0.2,2.5-0.6,3.3-1c3.1-1.4,6.9-2.2,10.2-3.3c11.9-4.1,23.4-8.3,34.4-13.8c0.1,0,0.2-0.1,0.3-0.1c-5.3,4.1-11.1,7.7-17.9,10.4
			c-0.4,0.2-0.8,1,0,0.9c8.8-1.8,17.2-5.1,25.6-7.7c-3.4,2.6-6.4,5.5-9.7,8.2c-1.8,1.5-3.6,2.9-5.4,4.3c-2,1.6-4.6,2.6-6.7,4
			c-0.2,0.1-0.7,0.8-0.1,0.9c3.8,0.4,7.8-1.2,11.4-2c6-1.3,12.2-2,18-4c4.2-1.4,8.1-3.5,11.6-6c-2.5,4.1-5.4,8-8.9,11.6
			c-0.3,0.3-0.2,0.9,0.4,0.6c5.5-2.8,9.7-7.3,14.5-10.8c0.8-0.6,1.5-1.2,2.2-1.8c2.5-0.5,5.6-3.4,8.5-6.9c-0.7,1.4-1.7,2.8-2.4,4.2
			c-0.9,2-1.9,3.9-2.8,5.8c-1.3,2.6-4.5,6.9-4,9.8c0.1,0.5,0.8,0.1,1.1-0.1c2.6-2.4,4.4-5.7,6.2-8.5c1.2-2,2.4-3.9,3.7-5.9
			c0.3-0.5,0.7-1.2,1-1.8c-0.8,2.6-1.8,5.1-2.7,7.7c-1,3-3,6.1-3.5,9.2c0,0.2,0.1,0.4,0.4,0.3c2.5-0.3,5.1-1.5,7.3-3
			c-0.1,0.8-0.2,1.6-0.2,2.4c0,0.2,0.2,0.2,0.4,0.2c2.3,0,4.4-1.8,6.1-3.9c0.2-0.1,0.4-0.2,0.7-0.4c1.3-1,1.9-2.5,2.2-4
			c0.5-0.9,0.9-1.6,1.2-2.2c0.5-0.9,0.9-2,1.2-3c0.9,1.4,1.8,2.9,2.7,4.3c1.7,2.8,3.6,6.1,6.2,8.5c0.2,0.2,1,0.6,1,0.1
			c0.5-2.9-2.7-7.2-4-9.8c-1-1.9-2-3.9-2.9-5.8c-0.5-1.1-1.3-2.2-1.9-3.3c0-0.1,0-0.2,0-0.3c2.7,3.2,5.6,5.9,8,6.3
			c0.7,0.6,1.4,1.2,2.2,1.8c4.7,3.5,9,8,14.5,10.8c0.6,0.3,0.7-0.3,0.4-0.6c-3.5-3.6-6.3-7.6-8.9-11.6c3.5,2.4,7.4,4.6,11.6,6
			c5.8,1.9,12,2.7,18,4c3.6,0.8,7.6,2.3,11.4,2c0.5-0.1,0-0.7-0.2-0.9c-2.2-1.5-4.7-2.4-6.7-4c-1.8-1.4-3.7-2.9-5.4-4.3
			c-3.3-2.7-6.4-5.5-9.7-8.2c8.5,2.6,16.8,5.9,25.6,7.7c0.8,0.2,0.4-0.7,0-0.9c-6.7-2.6-12.5-6.3-17.8-10.4c0.1,0,0.2,0.1,0.3,0.1
			c11,5.5,22.5,9.6,34.4,13.8c3.3,1.2,7.1,1.9,10.2,3.3c0.9,0.4,2.2,1.2,3.3,1c2.1-0.4-0.9-3.5-1.4-3.8c-4.5-3.6-9.3-7.4-13.5-11.3
			c-3.4-3.1-7.1-6-10.5-9.1c5.5,3.1,10.2,6.9,15.2,10.5c2.6,1.8,5.3,3.5,8,5.3c1.1,0.7,2.1,1.4,3.6,1.6c0.2,0,0.4-0.1,0.4-0.3
			c0.3-2.2-1.8-4.1-2.8-6c-1.5-3-4.8-6.1-7.3-8.7c-5.6-5.6-9.7-11.7-15.9-16.8c4.5,1.6,8.5,3.6,13.6,4.3c3,0.4,6.1,0.8,9.1,1.3
			c1.9,0.3,3.5,0.4,5.3-0.2C397.9,404,397.9,403.8,397.8,403.6z M293.4,438.9c-2.4,2.3-2.1,0.3-1.7-1.3c0.1-0.1,0.2-0.1,0.2-0.2
			c0.8,0.4,1.6,0.5,2.3,0.2c0.1,0,0.3,0.1,0.4,0.1C294.2,438.1,293.8,438.5,293.4,438.9z M299.3,427.8c-0.1-0.6-0.2-1.2-0.2-1.8
			c-0.2-1.2-0.3-2.4-0.5-3.6c0.7,1,1.2,2.1,1.8,3.1C300.1,426.3,299.7,427,299.3,427.8z M299.5,430.4c0-0.5,0-0.9-0.1-1.4
			c0.3-0.5,0.6-0.9,0.8-1.4c0.2-0.3,0.4-0.7,0.6-1.1C300.5,427.8,300.1,429.1,299.5,430.4z"/>
		<path class="st8" d="M253.6,249.5c2.4-1,5-2.7,7.7-3.3c-6.7,8-12.8,16.3-20.1,24.1c3-1.7,5.8-3.6,8-4.9
			c7.4-4.4,14.2-9.5,22.2-13.3c0.7-0.3,1.5,0.3,1.1,0.9c-2.9,4-6.9,7.3-10.2,11.1c9.3-2.2,15.9-9.2,24-13.1c0.8-0.4,1.5,0.3,1.1,0.9
			c-2.3,3.7-6.3,6.3-9.3,9.6c8.3-3,14.3-9,22.6-12.1c0.7-0.2,1.4,0.2,1.2,0.7c-1.5,5.7-3.7,13.4-0.9,19.2c2.3-2.5,2.7-5.8,3.7-8.8
			c0.2-0.6,1.5-0.7,1.6,0c0.3,1.7,0.5,3.5,1.1,5.2c1.9-3.7,1.2-7.9,2.3-11.7c0.2-0.7,1.4-0.6,1.6,0c4.5,10.7,10,20.7,17.3,30.5
			c0.1,0.2,0.1,0.4,0.1,0.5c4.4,3.5,10.9,6.2,16.6,7.6c6.5,1.6,2.8-2.6,0.9-5.2c2.3,1.1,4.7,1.9,7,3.1c1.7,0.9,4.2,2.5,6.4,1.9
			c0.4-0.1,0.3-0.5,0.1-0.7c-1.4-2-3.5-3.5-5.1-5.4c-0.9-1-1.6-2-2.4-2.9c3.1,1.6,6.8,2.8,9.7,4.1c2.4,1.1,5.3,1.8,7.9,2.7
			c2,0.7,3.7,1.5,5.8,1.3c0.6,0,0-0.8-0.2-0.9c-4.4-3-9.6-5-13.9-8.1c-5.1-3.6-9.7-7.5-13.8-11.8c-7.5-7.8-13.7-16.3-20.5-24.4
			c2.7,0.6,5.3,2.3,7.7,3.3c1.3,0.6,2.9,1.4,4.3,0.8c0.2-0.1,0.1-0.4,0.1-0.5c-0.3-1-0.9-1.7-1.9-2.4c-1.9-1.3-3.3-2.7-4.8-4.3
			c-2.1-2.3-4.1-4.9-6-7.4c1.8,1.4,3.6,2.7,5.8,3.9c1.6,0.9,4,2.5,6.2,1.9c0.2-0.1,0.3-0.2,0.3-0.4c-0.5-2.1-2.7-2.9-4.4-4.5
			c-1-0.9-2.4-1.5-3.4-2.5c-1.7-1.7-3.3-3.4-4.8-5.3c-5.7-7-10-14.1-13-22.1c-1.7-4.4-3.2-8.8-4.7-13.2c0-0.1,0-0.2-0.1-0.2
			c-1.3-3.2-2.5-6.4-3.7-9.6c-2.6-7.1-4.1-14.5-5.8-21.8c0,0,0,0,0,0c0-0.1,0-0.2,0-0.2c-0.6-2.5-1.2-5-1.8-7.5
			c-0.4,12.9,0.7,26,4.1,38.6c1.9,7.3,4.4,14.5,7,21.6c2.5,6.6,6.2,12.7,9,19.2c0.2,0.5-0.6,1.1-1.2,0.7c-4-2.4-6.9-5.5-9.4-8.8
			c2.1,5,5,9.8,5.7,15.1c0.1,0.5-0.8,0.8-1.2,0.6c-8.3-4.3-12.3-11.3-16.5-18.1c0.8,5.3,3.7,10.5,2.3,16c-0.1,0.4-0.8,0.6-1.2,0.4
			c-7.2-3.4-5.5-11.7-7.5-17.7c-1.3,8.1-3,16.8-10.9,22.5c-0.5,0.4-1.5,0.1-1.4-0.5c0.6-7.3,4-14.3,5.1-21.6
			c-3.2,6.1-6.9,12-13.1,16.5c-0.6,0.5-1.5,0-1.4-0.6c1.2-4.9,3.4-9.5,5-14.3c-4.2,5.2-9.9,9.5-15.4,13.9c-1.7,1.4-3.5,2.8-5.4,4.1
			c2,0.2,4-1.2,5.5-2c2.1-1.2,3.9-2.6,5.8-3.9c-1.9,2.5-3.9,5.1-6,7.4c-1.5,1.6-2.9,3-4.8,4.3c-1,0.7-1.6,1.4-1.9,2.4
			c0,0.1-0.1,0.4,0.1,0.5C250.7,250.9,252.3,250.1,253.6,249.5z"/>
		<path class="st8" d="M397.8,403.6c-0.5-1.5-2.5-2.2-4.1-2.9c-3.2-1.3-6.5-2.3-9.5-3.8c-3.8-1.8-7.3-3.8-10.8-6
			c-2.8-1.7-5.9-3.1-8.4-5.1c2.5,0.4,4.8,1.2,7.3,1.5c3.3,0.4,6.5,0.6,9.7,0.5c4.4-0.1,10-0.2,14-1.8c0.3-0.1,0-0.6-0.1-0.7
			c-0.9-0.8-2-1.2-3.3-1.4c-3.6-0.5-7.1-1.6-10.2-3.2c-6-3.1-11.8-6.4-17.2-10.3c-5-3.6-10.2-7.2-14.1-11.6
			c-0.6-0.7-2.5-2.8-4.1-5.1c2.3,1.5,4.5,3.1,6.8,4.6c1.1,0.7,2.7,1.9,4.1,1c0.2-0.1,0.1-0.3,0.1-0.5c-0.6-1.7-2.1-2.9-3.6-4.2
			c-1.5-1.3-2.8-2.8-4.1-4.2c1.7,0.7,3.2,1.5,5.1,2.1c2.6,0.8,5,1.7,7.6,2.5c3,1,6.9,2.7,10.2,2.2c0.3,0,0.3-0.3,0.2-0.5
			c-0.7-1.7-2.7-3-4-4.5c-1.9-2.4-4.9-4.7-7.4-6.7c-4.2-3.6-8.9-7.3-12.8-11.1c4.8,2.1,9.6,4.3,14.6,6.2c1.5,0.5,4.8,1,3.1-1
			c-4.5-5.3-11.9-9.6-17.8-14c3.2,0.7,6.3,2.4,9.4,3.1c3.3,0.8,6.8,1.8,10.3,2c3.6,0.3,7.2,0.2,10.9,0.3c2.5,0.1,5,0.4,7.3-0.4
			c0.6-0.2,0-0.8-0.3-1c-2.2-1.2-5.2-1-7.7-1.9c-3.9-1.3-7.7-2.6-11.6-3.9c-8-2.7-15.7-5.8-23-9.6c-1.8-0.9-3.9-1.9-5.7-3.1
			c1.4,0.5,2.9,0.9,4.5,1.3c4,0.9,8.3,1.2,12.5,1.3c3.3,0.1,8,0.1,10.8-1.4c0.3-0.1,0.9-0.8,0.3-0.9c-6.7-1.5-12.9-4-18.5-7.2
			c2,0.4,4,0.7,6,0.9c4,0.4,10.3,0.3,13-2.4c0.2-0.2,0.5-0.8,0-0.8c-4.8-0.6-9.5-1-14.3-2.1c-5.8-1.3-10.6-4.2-15.4-7
			c-3.7-2.2-6.8-4.7-9.4-7.4c-0.2,0.1-0.5,0.2-0.8,0.2c-7.4-1.2-13.7-5.5-18.7-10.2c1.7,2.8,3.9,5.5,4.5,8.7c0.1,0.5-0.4,0.9-1,0.8
			c-9-1.2-11.4-9-18.1-12.6c0,3.7,1.8,15.2-4.2,12.8c-5.9-2.4-6-9.9-8.5-14.4c-3.7,4.9,0.7,12.7-6.1,16.4c-0.4,0.2-1.1,0-1.2-0.4
			c-1.5-4.6,0.5-9,0.1-13.6c-3,2.8-3.3,7.1-6.5,10c-0.5,0.4-1.4,0.1-1.4-0.5c0-3.4,1.6-6.8,0.8-10.1c-3.4,1.9-5.2,5.8-7.6,8.4
			c-3,3.2-8.1,5.8-12.4,7.7c-0.7,0.3-1.3-0.2-1.2-0.7c0.9-4.2,3.5-8.1,4-12.3c-3.9,4.2-6.5,9.1-12.2,12.2c-0.8,0.4-1.4-0.4-1.1-0.9
			c1.7-3,3.8-5.9,4.4-9.1c-4.6,3.7-9.7,7.3-15.3,10.2c0.3-0.1,0.6-0.2,0.9-0.4c2.9-1.3,6.6-2.5,9.7-4.1c-0.8,1-1.5,2-2.4,2.9
			c-1.6,1.9-3.7,3.4-5.1,5.4c-0.2,0.2-0.3,0.6,0.1,0.7c2.2,0.6,4.7-1,6.4-1.9c2.3-1.2,4.7-1.9,7-3.1c-1.9,2.6-5.6,6.8,0.9,5.2
			c6-1.5,12.8-4.2,17.2-8c-1.4,3.6-5.3,6.3-7.9,9.3c-0.2,0.2-0.4,0.4-0.6,0.6c-1.6,1.1-3.2,2.2-4.7,3.2c-7.9,5.1-18,8.8-28.1,9.8
			c-0.4,0-1.2,0.7-0.7,1c0.2,0.1,0.4,0.2,0.6,0.3c6.8-0.1,13.3-0.3,19.8-2.3c6.7-2.1,13.1-4.9,20-6.6c0.8-0.2,1.4,0.7,0.8,1.1
			c-3.1,2.4-7,4.1-9.7,6.8c4.6-0.3,9-3,12.7-4.8c5-2.5,9.8-5.2,14.8-7.8c0.9-0.5,1.7,0.6,0.8,1.1c-0.2,0.4-0.4,0.8-0.7,1.2
			c2.5-0.7,4.6-1.8,6.6-3.4c0.1-0.1,0.2-0.1,0.3-0.1c1-0.8,2-1.7,2.9-2.6c0.6-0.6,2-0.1,1.4,0.7c-3.1,3.7-5,7.8-7.2,11.9
			c4.7-3.2,8-7.6,13.6-9.9c0.5-0.2,1.3,0,1.2,0.6c-0.3,2.8-2.3,5-3.9,7.4c3.8-2.8,6.3-6.6,9-10.1c0.4-0.5,1.3-0.4,1.5,0.2
			c2.9,7.3,6,14.8,11.3,21.3c-0.6-4.3-1.4-8.7-3.5-12.6c-0.4-0.8,1.2-1.1,1.6-0.3c1.6,3.3,5.3,6.6,9.4,8.2c0.4-2.2-0.4-4.3-1-6.5
			c-0.2-0.6,0.8-1.2,1.4-0.6c3.7,3.7,6,8.3,9.9,11.8c3.9,3.4,8.3,6.3,13.1,8.9c0.8,0.4,0.3,1.3-0.6,1.2c-8.3-0.9-16.8-0.6-24.9-2.5
			c-5.6-1.3-10.7-3.4-15.8-5.4c4.2,4.2,10.3,6.8,15.5,10.3c0.7,0.4-0.1,1.2-0.8,1.1c-7.5-1.4-15.8-3.8-21.8-7.8
			c1.8,3.2,4.4,6,6.5,9.1c0.3,0.4-0.1,1-0.7,1c-4.8,0-8.6-2.3-12.2-4.7c-3.6-2.3-5.8-6.2-9.8-8.2c-1.4,3-2.5,6.3-4.7,9
			c-2.1,2.5-4.7,4.8-7.4,7c-5.1,4.1-11,8.9-18.3,10.4c-0.6,0.1-1.2-0.3-1-0.8c1.7-5.2,6-9.4,8.9-14.2c-2.3,2.7-4.6,5.5-7.5,7.7
			c-3.7,2.9-7.9,5.4-12,7.9c-0.7,0.4-1.5-0.4-1.1-0.9c4.2-5.9,12.4-11.4,14-18.4c-6.6,3.9-13,7.8-20.1,11.3
			c-3.3,1.6-6.7,3.4-10.1,4.8c-0.7,1.4,2.1,1,3.5,0.5c5-1.9,9.8-4,14.6-6.2c-3.9,3.9-8.6,7.6-12.8,11.1c-2.5,2.1-5.4,4.3-7.4,6.7
			c-1.2,1.6-3.2,2.8-4,4.5c-0.1,0.2-0.1,0.4,0.2,0.5c3.4,0.5,7.2-1.2,10.2-2.2c2.5-0.8,5-1.7,7.6-2.5c1.9-0.6,3.4-1.4,5.1-2.1
			c-1.3,1.4-2.7,2.9-4.1,4.2c-1.4,1.3-3,2.6-3.6,4.2c-0.1,0.2-0.1,0.4,0.1,0.5c1.3,0.9,3-0.3,4.1-1c2.3-1.5,4.5-3,6.8-4.6
			c-1.5,2.2-3.5,4.4-4.1,5.1c-3.8,4.4-9.1,8-14.1,11.6c-1.8,1.3-3.7,2.5-5.6,3.7c4.7-1.4,9.2-3.7,13-5.8c6.4-3.5,12.4-7.4,18.4-11.3
			c0.8-0.5,1.8,0.3,1.2,0.9c-3.7,3.8-7.6,7.4-11.8,10.9c9.2-2.1,16.9-8.2,24.3-12.8c0.8-0.5,1.9,0.3,1.2,0.9
			c-5.1,4.6-10.9,8.8-15.6,13.7c7,0,13.9-3.6,19.3-6.8c6.2-3.7,11.9-7.9,17.1-12.4c0.7-0.6,1.7,0.2,1.3,0.8
			c-1.6,2.9-3.5,5.6-5.9,8.1c4-1.7,7.4-4.2,10.8-6.6c0.7-0.5,1.7,0.1,1.3,0.8c-1,1.7-2.1,3.2-3.1,4.9c2.9-1.7,5.2-3.9,8-5.7
			c0.6-0.4,1.6,0,1.4,0.6c-1.8,5.4-1.4,11.5,2.7,16.2c1.8-4.4,1.6-9.2,2.3-13.7c0.1-0.7,1.3-0.9,1.6-0.2c1.2,2.7,1.8,7,4.7,8.9
			c2,1.3,1.7-4.9,1.7-5.4c-0.1-1.5-0.4-3.1-0.1-4.7c0.1-0.6,1.1-0.9,1.5-0.3c5,6.1,11.7,11.4,19.6,15.1c6.4,3,13.2,5.4,18.8,9.4
			c0.5,0.4,0.1,1.2-0.6,1.1c-9.2-0.7-18.3-1.9-27.3-3.4c6.4,4.2,13.7,7.2,21.1,10.1c0.6,0.2,0.5,1.1-0.2,1.2
			c-10,1.1-21,1.6-30.9,0.3c-8.9-1.2-16.9-4.2-25.1-7c2.6,5.2,7.9,9.3,9.8,14.8c0.2,0.5-0.6,1.1-1.2,0.7c-6.5-3.1-9.9-8.9-16.3-12
			c-0.5,4,0.1,8.1-2.5,11.7c-0.3,0.4-1.1,0.4-1.4,0c-2.6-3.9-2.7-8.5-5.2-12.5c-3,4.2-3.1,10.7-9.7,12.5c-0.4,0.1-0.9-0.1-1-0.5
			c-2.1-5.7,3.3-10.8,3.7-16.4c-2.6,2.8-4.8,5.8-8.3,7.9c-0.7,0.4-1.5-0.4-1.1-0.9c1.9-2.7,3.5-5.3,4.5-8.3
			c-9.7,2.3-15.8,10.3-26,12.2c-0.8,0.1-1.2-0.4-0.9-1c1.8-3.2,4.5-6,6.8-8.9c-2,1.5-4.1,2.8-6.7,3.7c-0.5,0.2-1-0.3-1-0.6
			c-0.1-2.8,1.4-5.3,2.6-7.8c-8,4.5-17.2,7.9-26.6,10c-1.6,0.4-3.3,0.7-5,1c1.3,0,2.5,0.1,3.7,0.1c3.3,0.1,6.5-0.1,9.8-0.5
			c2.5-0.3,4.9-1.2,7.3-1.5c-2.5,2-5.6,3.4-8.4,5.1c-3.5,2.2-7,4.2-10.8,6c-3.1,1.5-6.3,2.5-9.5,3.8c-1.7,0.6-3.6,1.4-4.1,2.9
			c-0.1,0.2-0.1,0.4,0.2,0.5c1.8,0.7,3.4,0.5,5.3,0.2c3-0.5,6.1-0.9,9.1-1.3c5-0.7,9.1-2.7,13.6-4.3c-1,0.9-2,1.8-3,2.7
			c6.6-1.8,13.2-3.8,19.8-5.6c0.9-0.2,1.4,0.8,0.6,1.2c-6.8,3.3-13.5,6.8-19.6,10.9c9.1-1.4,17.5-4.7,25.4-8.4c0.9-0.4,1.6,0.5,1,1
			c-2.6,2.5-6,4.5-8.7,6.9c8.5-0.9,16-4.6,24.5-5.7c0.7-0.1,1.5,0.6,0.8,1.1c-4.3,3-9.2,5.3-13.8,8c14.1-0.8,26.1-8.3,40.1-9.8
			c0.8-0.1,1,0.7,0.6,1.1c-3.6,3.5-8.3,6.2-13.3,8.4c9.6-1.7,18.6-6,26.2-10.7c0.8-0.5,1.8,0.3,1.2,0.9c-2.4,2.4-4.9,4.8-7.2,7.3
			c6.8-1.8,12.5-6.1,17.7-9.8c0.7-0.5,1.7,0.1,1.3,0.8c-1.9,3.4-3.2,7.6-1.8,11.3c2.2-3.1,3.6-6.4,4.8-9.9c0.2-0.6,1.4-0.7,1.6,0
			c1.1,4.6,1.8,10.6,7.5,13.1c2-4.1,2.5-8.5,2.9-12.9c0.1-0.8,1.7-0.9,1.7,0c-0.2,9.4,8.3,16.9,17.4,22.1c5.1,2.9,10.5,5.3,16.2,7.4
			c0.3,0.1,0.5,0.1,0.8,0.2c0.8,0.2,0.4-0.7,0-0.9c-6.7-2.6-12.5-6.3-17.8-10.4c0.1,0,0.2,0.1,0.3,0.1c11,5.5,22.5,9.6,34.4,13.8
			c3.3,1.2,7.1,1.9,10.2,3.3c0.9,0.4,2.2,1.2,3.3,1c2.1-0.4-0.9-3.5-1.4-3.8c-4.5-3.6-9.3-7.4-13.5-11.3c-3.4-3.1-7.1-6-10.5-9.1
			c5.5,3.1,10.2,6.9,15.2,10.5c2.6,1.8,5.3,3.5,8,5.3c1.1,0.7,2.1,1.4,3.6,1.6c0.2,0,0.4-0.1,0.4-0.3c0.3-2.2-1.8-4.1-2.8-6
			c-1.5-3-4.8-6.1-7.3-8.7c-5.6-5.6-9.7-11.7-15.9-16.8c4.5,1.6,8.5,3.6,13.6,4.3c3,0.4,6.1,0.8,9.1,1.3c1.9,0.3,3.5,0.4,5.3-0.2
			C397.9,404,397.9,403.8,397.8,403.6z"/>
		<path class="st5" d="M280.1,203.5c8.9-16.7,16.2-34.9,15.2-53.2c-4,14.3-8.6,28.5-14.2,42.5c-0.9,2.2-1.9,4.3-3,6.4
			c-0.9,2.6-1.8,5.1-2.8,7.7c-2.3,6.2-5.5,11.9-9.5,17.4C271.6,217.8,276.2,210.8,280.1,203.5z"/>
		<path class="st5" d="M212.9,291.5c3.1-1.2,6-2.7,8.7-4.3c6.9-4,13.1-8.7,19-13.6c5.6-4.6,11.6-9.3,15.6-14.9
			c3.1-4.5,5.2-9.4,7.2-14.2c-1.6,1.9-3.3,3.8-5.2,5.5c-5.6,6.9-11,14-17.4,20.6c-4.1,4.3-8.7,8.2-13.8,11.8
			c-4.3,3.1-9.5,5.2-13.9,8.1C212.9,290.7,212.3,291.5,212.9,291.5z"/>
		<path class="st5" d="M268.2,277.6c-3.1,3.5-6.4,7.1-9.9,10.4c-1.8,2.1-4.1,4-5.8,6c-0.2,0.2-0.4,0.4-0.6,0.6
			c-1.6,1.1-3.2,2.2-4.7,3.2c-7.9,5.1-18,8.8-28.1,9.8c-0.2,0-0.4,0.1-0.6,0.3C241.3,307,262.6,295.8,268.2,277.6z"/>
		<path class="st5" d="M209.3,327.7c-1.1,0.4-2.2,0.5-3.4,0.7c10.5-0.9,20.9-4.4,29.9-8.1c9.3-3.8,15.5-8.9,21-15.4
			c-3.1,2.1-6.2,4.2-9.4,6.2c1.8-0.8,3.5-1.6,5.2-2.4c-2.1,2.3-5.8,4.1-8.7,5.5c-7.3,3.7-15.1,6.9-23,9.6
			C217.1,325.1,213.2,326.4,209.3,327.7z"/>
		<path class="st5" d="M195.8,384c-1.2,0.2-2.3,0.5-3.1,1.2c10-0.6,20.4-4.9,27.8-8.9c12.4-6.7,22.2-16.4,25.2-28.2
			c-3.9,3.2-7.4,6.6-10.9,10c2.2-1.4,4.3-2.9,6.5-4.4c-1.5,2.2-3.5,4.4-4.1,5.1c-3.8,4.4-9.1,8-14.1,11.6
			c-5.3,3.8-11.1,7.2-17.2,10.3C203,382.4,199.4,383.4,195.8,384z"/>
		<path class="st5" d="M238.1,410.6c-9.6,2.8-17.7,8.2-25.1,13.7c-5.3,3.9-11.7,7.8-16.2,12.5c0.4-0.2,0.7-0.3,1-0.5
			c3.1-1.4,6.9-2.2,10.2-3.3c1.3-0.5,2.6-0.9,3.9-1.4C221.8,425.5,230.5,418.2,238.1,410.6z"/>
		<path class="st5" d="M279.3,363.2c-7.1,8.3-11.3,18.1-13.3,28C275.5,385,278.5,372.8,279.3,363.2z"/>
		<path class="st5" d="M306.8,382.5c-3.8-4.5-8-8.7-12.6-12.7C297,374.8,301.5,379.1,306.8,382.5z"/>
		<path class="st5" d="M266.9,309.2c-4.8,6.7-11.3,12.6-16.2,19.3C261.9,326.2,265.2,317.5,266.9,309.2z"/>
		<path class="st5" d="M293.2,321.4c-0.7-5.9-1.8-12-6.3-16.7C287.1,310.5,289.6,316.3,293.2,321.4z"/>
		<path class="st5" d="M260.8,417.8c-7.5,7.9-16.1,15.1-25.8,21.5c1.6-0.4,3.3-0.9,4.8-1.2c1.4-0.3,2.9-0.6,4.3-0.9
			C251.8,432.1,257.7,425.1,260.8,417.8z"/>
		<path class="st5" d="M217.5,399.2c0.4-0.2,0.8-0.3,1.3-0.5c-6.2,5.2-10.3,11.3-15.9,16.8c-2.5,2.5-5.8,5.7-7.3,8.7
			c-0.4,0.8-1,1.5-1.5,2.3c15.3-13.2,29.5-27.3,43.1-41.6C229.3,388.5,223.2,393.6,217.5,399.2z"/>
	</g>
	<path class="st0" d="M301.5,559.5"/>
	<path class="st0" d="M300.4,549.8"/>
</g>
</svg>
